{"glyphs":{"0":{"ha":630,"x_min":53,"x_max":613,"o":"m 244 -87 l 244 -87 q 136 -50 178 -87 q 74 46 94 -14 q 53 174 53 105 l 53 174 q 70 318 53 242 q 119 465 87 393 q 196 594 151 536 q 296 686 240 651 q 415 720 351 720 l 415 720 q 520 690 476 720 q 589 604 564 659 q 613 474 613 549 l 613 474 q 595 312 613 393 q 544 160 577 231 q 465 33 510 88 q 363 -55 419 -23 q 244 -87 307 -87 z m 258 -53 l 258 -53 q 345 -18 303 -53 q 421 76 386 17 q 482 207 456 135 q 523 354 508 279 q 537 495 537 429 l 537 495 q 525 597 537 552 q 487 667 513 641 q 416 693 460 693 l 416 693 q 333 666 371 693 q 263 594 294 639 q 209 492 232 548 q 169 374 185 435 q 145 256 153 313 q 137 153 137 199 l 137 153 q 170 4 137 60 q 258 -53 202 -53 z"},"1":{"ha":365,"x_min":-46,"x_max":317,"o":"m 30 -87 l 30 -87 q -10 -76 12 -87 q -46 -46 -32 -66 l -46 -46 q -30 -47 -38 -47 q -14 -48 -22 -48 l -14 -48 q 40 -44 12 -48 q 94 -37 68 -41 l 94 -37 q 129 67 112 5 q 160 199 145 128 q 189 342 175 270 q 215 476 202 413 q 238 584 227 539 l 238 584 q 157 531 181 544 q 123 518 132 518 l 123 518 q 105 524 111 518 q 98 547 98 529 l 98 547 q 153 583 117 557 q 230 645 188 609 q 308 720 272 681 l 308 720 q 315 707 313 716 q 317 689 317 697 l 317 689 q 308 636 317 664 q 294 577 299 607 l 294 577 q 269 426 284 508 q 235 261 254 344 q 192 102 215 177 q 142 -30 169 26 l 142 -30 q 163 -27 153 -28 q 182 -27 173 -27 l 182 -27 q 246 -37 220 -27 q 279 -83 272 -48 l 279 -83 q 240 -79 259 -81 q 200 -78 220 -78 l 200 -78 q 140 -80 169 -78 q 84 -84 111 -82 q 30 -87 57 -87 z"},"2":{"ha":559,"x_min":-19,"x_max":500,"o":"m 398 -87 l 398 -87 q 331 -76 369 -87 q 251 -47 293 -65 q 163 -11 208 -30 l 163 -11 q 104 -42 132 -31 q 49 -54 75 -54 l 49 -54 q 0 -39 19 -54 q -19 0 -19 -24 l -19 0 q -1 36 -19 23 q 56 48 17 48 l 56 48 q 105 44 78 48 q 161 34 131 40 l 161 34 q 254 135 207 75 q 341 267 301 195 q 405 412 380 338 q 429 551 429 485 l 429 551 q 399 660 429 626 q 323 693 369 693 l 323 693 q 249 667 279 693 q 202 594 218 640 q 186 491 186 548 l 186 491 q 189 457 186 471 q 198 423 191 442 l 198 423 q 196 423 197 423 q 193 423 195 423 l 193 423 q 141 452 159 432 q 123 512 123 471 l 123 512 q 151 614 123 566 q 227 691 178 661 q 339 720 275 720 l 339 720 q 425 696 389 720 q 480 630 460 671 q 499 538 499 589 l 499 538 q 486 438 499 488 q 452 341 473 388 l 452 341 q 387 225 426 283 q 303 114 348 166 q 209 23 257 62 l 209 23 q 336 -3 283 7 q 424 -14 388 -14 l 424 -14 q 460 -8 443 -14 q 500 11 476 -3 l 500 11 q 463 -63 487 -40 q 398 -87 438 -87 z m 48 -27 l 48 -27 q 83 -18 64 -27 q 123 4 102 -10 l 123 4 q 81 17 100 12 q 47 22 61 22 l 47 22 q 20 14 27 22 q 12 -2 12 5 l 12 -2 q 24 -20 12 -13 q 48 -27 35 -27 z"},"3":{"ha":510,"x_min":6,"x_max":468,"o":"m 170 -87 l 170 -87 q 73 -64 109 -87 q 22 -9 37 -42 q 6 55 6 24 l 6 55 q 15 106 6 81 q 42 147 24 130 q 87 163 60 163 l 87 163 q 97 163 92 163 q 105 162 101 163 l 105 162 q 82 123 91 150 q 73 69 73 95 l 73 69 q 86 10 73 38 q 123 -37 99 -19 q 179 -55 147 -55 l 179 -55 q 256 -27 219 -55 q 317 52 293 1 q 341 168 341 102 l 341 168 q 331 245 341 207 q 296 312 320 283 q 230 351 272 340 l 230 351 q 316 415 279 373 q 372 505 352 456 q 392 596 392 554 l 392 596 q 365 671 392 649 q 302 693 337 693 l 302 693 q 248 681 274 693 q 205 644 222 668 q 188 585 188 620 l 188 585 q 192 553 188 570 q 204 518 196 535 l 204 518 q 187 499 199 508 q 164 490 175 490 l 164 490 q 144 503 152 490 q 131 534 135 515 q 127 569 127 552 l 127 569 q 155 652 127 618 q 226 703 183 685 q 314 720 269 720 l 314 720 q 389 706 354 720 q 446 664 424 692 q 468 591 468 635 l 468 591 q 455 522 468 558 q 417 453 441 486 q 362 396 393 420 q 293 361 330 371 l 293 361 q 384 314 351 347 q 430 242 416 281 q 443 168 443 203 l 443 168 q 423 76 443 121 q 365 -6 402 30 q 279 -65 328 -43 q 170 -87 229 -87 z"},"4":{"ha":478,"x_min":-8,"x_max":454,"o":"m 297 -87 l 297 -87 q 242 -73 263 -84 q 220 -40 220 -62 l 220 -40 q 222 -25 220 -40 q 230 27 224 -10 q 248 130 236 64 l 248 130 q 255 165 249 136 q 270 236 261 194 l 270 236 q 226 237 248 236 q 187 237 204 237 l 187 237 q 138 237 161 237 q 95 235 115 236 q 56 231 74 233 q 22 227 38 229 q -8 221 6 224 l -8 221 q -3 246 -8 235 q 10 263 1 256 l 10 263 q 107 364 50 310 q 226 477 164 418 q 343 598 288 536 q 432 720 397 659 l 432 720 q 440 713 436 719 q 443 694 443 706 l 443 694 q 424 639 443 671 l 424 639 q 408 565 419 616 q 382 442 396 513 q 352 288 368 371 l 352 288 q 373 288 362 288 q 394 288 383 288 l 394 288 q 427 289 413 288 q 454 294 441 290 l 454 294 q 409 252 435 268 q 364 235 383 235 l 364 235 q 353 235 359 235 q 342 235 347 235 l 342 235 q 336 205 339 220 q 331 175 333 190 l 331 175 q 321 115 327 152 q 310 37 315 77 q 301 -38 304 -4 q 297 -87 297 -72 z m 80 288 l 80 288 q 128 292 102 291 q 181 293 153 293 l 181 293 q 235 293 210 293 q 282 291 260 292 l 282 291 q 313 424 296 355 q 345 545 329 493 l 345 545 q 265 469 308 508 q 181 391 222 429 q 107 317 140 352 l 107 317 q 93 302 99 309 q 80 288 86 294 z"},"5":{"ha":483,"x_min":-3,"x_max":477,"o":"m 166 -87 l 166 -87 q 64 -64 101 -87 q 12 -9 27 -42 q -3 54 -3 23 l -3 54 q 6 105 -3 80 q 34 147 15 130 q 78 163 52 163 l 78 163 q 88 163 83 163 q 96 162 92 163 l 96 162 q 73 123 82 150 q 64 65 64 96 l 64 65 q 74 8 64 35 q 107 -37 84 -20 q 166 -55 129 -55 l 166 -55 q 237 -34 206 -55 q 290 20 268 -14 q 323 94 311 53 q 334 174 334 134 l 334 174 q 321 251 334 215 q 278 308 307 286 q 200 330 249 330 l 200 330 q 159 327 183 330 q 108 319 134 324 l 108 319 q 122 389 112 347 q 145 478 132 430 q 172 572 158 525 q 196 655 185 618 q 212 713 207 692 l 212 713 q 269 703 242 706 q 318 700 295 700 l 318 700 q 396 706 359 700 q 473 720 433 712 l 473 720 q 476 705 475 712 q 477 693 477 698 l 477 693 q 458 648 477 664 q 411 625 439 631 q 354 618 383 618 l 354 618 q 291 625 317 618 q 245 631 264 631 l 245 631 q 232 628 236 631 q 222 611 228 624 l 222 611 q 204 561 214 592 q 185 495 194 530 q 167 428 175 460 q 153 374 158 395 q 146 348 147 352 l 146 348 q 189 356 167 353 q 233 358 211 358 l 233 358 q 345 334 301 358 q 410 266 388 309 q 431 169 431 223 l 431 169 q 397 39 431 97 q 303 -53 363 -19 q 166 -87 243 -87 z"},"6":{"ha":561,"x_min":49,"x_max":528,"o":"m 253 -87 l 253 -87 q 134 -54 179 -87 q 69 36 89 -21 q 49 160 49 92 l 49 160 q 67 305 49 228 q 118 456 84 382 q 199 589 151 529 q 305 685 246 649 q 434 720 364 720 l 434 720 q 502 706 475 720 q 528 662 528 692 l 528 662 q 519 635 528 648 q 482 614 510 622 l 482 614 q 483 627 482 622 q 484 642 484 632 l 484 642 q 474 681 484 664 q 429 697 463 697 l 429 697 q 339 663 381 697 q 263 571 297 628 q 202 446 228 514 q 160 309 176 377 l 160 309 q 238 357 193 340 q 329 374 283 374 l 329 374 q 421 354 379 374 q 487 291 462 333 q 512 180 512 248 l 512 180 q 479 44 512 104 q 388 -51 446 -16 q 253 -87 329 -87 z m 258 -55 l 258 -55 q 327 -33 296 -55 q 380 23 358 -12 q 414 101 402 58 q 425 186 425 143 l 425 186 q 408 274 425 240 q 362 324 390 308 q 300 340 333 340 l 300 340 q 205 312 240 340 q 154 238 169 283 q 138 140 138 192 l 138 140 q 143 79 138 112 q 161 15 148 45 q 197 -35 173 -16 q 258 -55 221 -55 z"},"7":{"ha":403,"x_min":59,"x_max":490,"o":"m 95 -87 l 95 -87 q 72 -75 82 -87 q 61 -42 61 -64 l 61 -42 q 80 39 61 -13 q 129 159 98 91 q 195 299 159 226 l 195 299 q 152 298 177 299 q 101 294 126 296 q 59 289 76 292 l 59 289 q 82 333 60 319 q 136 350 103 346 q 200 354 168 354 l 200 354 q 212 354 206 354 q 224 354 218 354 l 224 354 q 310 502 264 429 q 389 635 355 575 l 389 635 q 342 634 371 635 q 282 631 312 632 q 228 629 251 629 l 228 629 q 148 643 170 629 q 126 676 126 656 l 126 676 q 139 718 126 694 l 139 718 q 192 709 167 714 q 247 701 216 704 q 322 698 277 698 l 322 698 q 414 703 369 698 q 490 718 459 708 l 490 718 q 467 683 483 706 q 436 643 451 660 l 436 643 q 358 514 399 588 q 276 351 317 440 l 276 351 q 327 348 304 350 q 375 346 350 346 l 375 346 q 395 347 389 346 q 407 349 401 348 l 407 349 q 372 312 391 325 q 328 298 352 298 l 328 298 q 296 298 314 298 q 252 299 277 298 l 252 299 q 214 208 235 258 q 178 106 193 157 q 163 11 163 55 l 163 11 q 166 -12 163 -2 q 175 -27 168 -22 l 175 -27 q 134 -74 159 -61 q 95 -87 109 -87 z"},"8":{"ha":527,"x_min":29,"x_max":469,"o":"m 204 -87 l 204 -87 q 120 -71 153 -87 q 66 -30 86 -56 q 38 24 46 -5 q 29 77 29 52 l 29 77 q 48 155 29 120 q 99 221 67 190 q 168 279 130 251 q 245 336 206 307 l 245 336 q 191 400 217 367 q 149 471 165 433 q 133 554 133 509 l 133 554 q 161 650 133 614 q 232 703 189 686 q 318 719 275 719 l 318 719 q 428 683 386 719 q 469 575 469 646 l 469 575 q 450 487 469 526 q 398 414 430 447 q 326 349 365 380 l 326 349 q 386 281 357 316 q 434 207 415 246 q 452 122 452 168 l 452 122 q 416 11 452 58 q 323 -61 380 -36 q 204 -87 266 -87 z m 214 -48 l 214 -48 q 287 -27 251 -48 q 346 31 322 -7 q 370 118 370 68 l 370 118 q 340 219 370 174 q 271 307 310 264 l 271 307 q 184 240 225 274 q 116 167 142 205 q 90 80 90 128 l 90 80 q 108 12 90 41 q 155 -32 126 -17 q 214 -48 183 -48 z m 300 379 l 300 379 q 379 467 347 419 q 411 576 411 514 l 411 576 q 384 664 411 635 q 319 692 356 692 l 319 692 q 272 680 297 692 q 229 641 246 668 q 211 567 211 613 l 211 567 q 238 466 211 511 q 300 379 264 420 z"},"9":{"ha":566,"x_min":86,"x_max":549,"o":"m 183 -87 l 183 -87 q 115 -72 142 -87 q 87 -27 87 -58 l 87 -27 q 96 -1 87 -13 q 131 19 105 11 l 131 19 q 131 7 131 12 q 130 -6 130 2 l 130 -6 q 141 -46 130 -28 q 187 -64 152 -64 l 187 -64 q 276 -29 235 -64 q 349 62 316 5 q 406 188 382 119 q 442 324 429 256 l 442 324 q 367 276 411 293 q 276 259 322 259 l 276 259 q 182 281 225 259 q 112 347 138 302 q 86 462 86 392 l 86 462 q 118 594 86 535 q 206 686 149 652 q 336 720 262 720 l 336 720 q 461 685 414 720 q 529 590 508 649 q 549 458 549 530 l 549 458 q 533 315 549 390 q 485 169 516 240 q 410 40 454 97 q 308 -52 365 -18 q 183 -87 251 -87 z m 304 293 l 304 293 q 421 342 384 293 q 457 469 457 391 l 457 469 q 452 545 457 506 q 433 616 446 583 q 395 668 419 648 q 332 688 370 688 l 332 688 q 266 668 295 688 q 216 614 236 647 q 184 539 195 580 q 173 456 173 498 l 173 456 q 192 363 173 399 q 240 310 210 327 q 304 293 270 293 z"}," ":{"ha":260,"x_min":0,"x_max":0,"o":""},"A":{"ha":592,"x_min":-17,"x_max":573,"o":"m 17 -87 l 17 -87 q -11 -59 -5 -74 q -17 -35 -17 -45 l -17 -35 q 4 41 -17 -7 q 59 151 24 89 q 135 278 93 212 l 135 278 q 72 282 98 281 q 27 283 46 283 l 27 283 l -8 283 q 31 324 3 312 q 96 335 58 335 l 96 335 q 131 333 113 335 q 168 328 149 331 l 168 328 q 273 478 219 405 q 373 607 326 550 q 450 692 419 663 l 450 692 q 498 720 479 720 l 498 720 q 523 712 509 720 q 551 688 536 703 l 551 688 q 526 646 541 680 q 493 559 510 611 q 458 445 475 507 q 427 319 441 383 q 404 196 412 254 q 395 94 395 138 l 395 94 q 404 35 395 56 q 432 14 412 14 l 432 14 q 491 50 458 14 q 563 162 524 86 l 563 162 l 573 152 q 497 21 543 72 q 400 -30 450 -30 l 400 -30 q 341 7 359 -30 q 322 104 322 43 l 322 104 q 327 174 322 136 q 339 253 331 212 l 339 253 q 259 265 295 260 q 191 273 222 269 l 191 273 q 100 94 144 186 q 17 -87 55 2 z m 346 288 l 346 288 q 381 422 361 354 q 424 550 401 489 q 466 657 446 611 l 466 657 q 395 590 435 638 q 309 472 354 541 q 217 319 264 402 l 217 319 q 285 304 251 312 q 346 288 318 295 z"},"B":{"ha":608,"x_min":19,"x_max":564,"o":"m 130 -87 l 130 -87 q 47 -68 75 -87 q 19 -7 19 -50 l 19 -7 q 24 -4 19 -4 l 24 -4 q 49 -9 31 -4 q 118 -14 67 -14 l 118 -14 q 277 6 204 -14 q 404 59 350 25 q 487 136 457 93 q 516 223 516 178 l 516 223 q 493 289 516 264 q 433 327 470 314 q 351 345 395 340 q 264 349 307 349 l 264 349 q 226 349 245 349 q 189 348 206 348 l 189 348 q 144 185 166 267 q 99 26 122 103 l 99 26 q 57 40 74 26 q 40 74 40 54 l 40 74 q 45 102 40 86 q 54 131 50 118 l 54 131 q 75 198 60 151 q 112 308 90 245 q 159 440 133 371 q 213 575 185 509 q 266 692 240 641 l 266 692 q 196 672 224 685 q 151 649 167 659 q 128 638 135 638 l 128 638 q 116 643 123 638 q 102 654 108 647 q 96 665 96 660 l 96 665 q 201 703 146 686 q 333 720 255 720 l 333 720 q 406 715 366 720 q 482 693 446 709 q 541 645 518 676 q 564 561 564 613 l 564 561 q 543 478 564 512 q 488 421 522 443 q 414 385 454 398 q 335 366 374 372 l 335 366 q 455 345 409 362 q 524 305 500 328 q 555 255 547 281 q 563 205 563 229 l 563 205 q 533 100 563 147 q 454 18 503 53 q 347 -40 405 -17 q 232 -75 289 -64 q 130 -87 175 -87 z m 195 371 l 195 371 q 305 384 250 373 q 404 417 359 394 q 477 477 449 440 q 504 569 504 514 l 504 569 q 480 649 504 621 q 417 688 455 677 q 335 699 378 699 l 335 699 q 326 699 330 699 q 316 698 321 699 l 316 698 q 251 544 280 628 q 195 371 221 460 z"},"C":{"ha":534,"x_min":22,"x_max":529,"o":"m 219 -87 l 219 -87 q 105 -51 148 -87 q 42 40 61 -16 q 22 157 22 96 l 22 157 q 46 316 22 236 q 112 469 70 396 q 206 598 153 541 q 318 687 259 654 q 433 719 376 719 l 433 719 q 500 700 474 719 q 525 633 525 680 l 525 633 q 515 568 525 604 q 488 498 505 531 q 451 442 471 464 q 409 420 430 420 l 409 420 q 393 425 401 420 q 378 443 384 430 l 378 443 q 412 486 393 460 q 447 540 430 511 q 475 596 464 568 q 485 644 485 623 l 485 644 q 474 677 485 664 q 436 689 462 689 l 436 689 q 347 654 393 689 q 257 561 300 619 q 178 430 213 502 q 123 283 143 358 q 102 140 102 208 l 102 140 q 116 47 102 91 q 162 -25 130 2 q 243 -53 193 -53 l 243 -53 q 349 -23 296 -53 q 445 56 401 7 q 515 162 489 105 l 515 162 l 529 152 q 449 33 496 87 q 344 -54 402 -22 q 219 -87 286 -87 z"},"D":{"ha":653,"x_min":56,"x_max":643,"o":"m 163 -87 l 163 -87 q 104 -78 132 -87 q 56 -42 76 -70 l 56 -42 q 81 62 66 6 q 112 176 95 117 q 147 291 129 234 q 180 396 164 347 q 209 482 196 445 q 229 538 222 519 l 229 538 q 239 562 232 546 q 256 593 246 577 q 279 621 266 609 q 307 632 292 632 l 307 632 q 335 622 321 632 l 335 622 q 273 463 304 550 q 212 284 241 376 q 159 103 183 191 q 119 -57 135 15 l 119 -57 q 143 -60 133 -59 q 162 -61 152 -61 l 162 -61 q 286 -31 226 -61 q 397 50 345 -2 q 487 168 448 101 q 548 309 526 234 q 569 457 569 383 l 569 457 q 543 591 569 538 q 471 668 517 643 q 364 693 425 693 l 364 693 q 247 667 299 693 q 165 597 195 641 q 135 498 135 553 l 135 498 q 137 477 135 486 q 140 461 138 468 l 140 461 q 94 478 107 461 q 80 517 80 494 l 80 517 q 105 588 80 552 q 173 653 129 623 q 273 702 216 683 q 394 720 330 720 l 394 720 q 539 684 484 720 q 618 585 593 647 q 643 446 643 523 l 643 446 q 616 280 643 359 q 542 134 589 200 q 433 18 494 67 q 303 -59 372 -32 q 163 -87 233 -87 z"},"E":{"ha":498,"x_min":-15,"x_max":492,"o":"m 180 -87 l 180 -87 q 76 -62 120 -87 q 9 5 32 -37 q -15 95 -15 46 l -15 95 q 5 185 -15 141 q 61 266 25 229 q 143 326 96 302 q 244 354 190 349 l 244 354 q 187 428 205 386 q 168 512 168 470 l 168 512 q 195 613 168 565 q 268 690 221 660 q 374 719 315 719 l 374 719 q 459 691 430 719 q 488 611 488 663 l 488 611 q 475 539 488 574 q 444 482 462 504 q 408 460 425 460 l 408 460 q 387 470 397 460 q 371 492 377 479 l 371 492 q 431 558 406 523 q 455 631 455 592 l 455 631 q 437 679 455 662 q 384 696 419 696 l 384 696 q 306 669 338 696 q 258 596 274 641 q 241 495 241 550 l 241 495 q 252 417 241 459 q 299 344 263 375 l 299 344 q 183 293 232 333 q 106 199 133 253 q 78 92 78 145 l 78 92 q 91 26 78 59 q 131 -30 103 -8 q 206 -53 159 -53 l 206 -53 q 312 -23 259 -53 q 408 56 364 7 q 478 162 452 105 l 478 162 l 492 152 q 410 30 457 84 q 305 -55 363 -24 q 180 -87 247 -87 z"},"F":{"ha":482,"x_min":66,"x_max":614,"o":"m 152 -87 l 152 -87 q 95 -62 106 -83 q 84 -8 84 -41 l 84 -8 q 99 81 84 28 q 137 195 114 133 q 182 319 159 257 l 182 319 q 157 317 170 318 q 123 313 143 315 q 71 305 103 310 l 71 305 q 91 346 73 331 q 137 367 108 360 q 202 375 166 374 l 202 375 q 260 526 230 452 q 318 660 289 599 l 318 660 q 299 662 308 661 q 279 662 289 662 l 279 662 q 180 649 215 662 q 132 609 145 636 q 119 540 119 582 l 119 540 q 122 500 119 518 q 132 461 125 481 l 132 461 q 82 488 98 467 q 66 539 66 508 l 66 539 q 103 631 66 591 q 203 693 140 670 q 341 715 265 715 l 341 715 q 444 708 394 715 q 540 700 493 700 l 540 700 q 579 703 561 700 q 614 710 596 705 l 614 710 q 552 654 577 668 q 501 640 527 640 l 501 640 q 442 647 478 640 q 359 657 405 653 l 359 657 q 330 578 346 624 q 297 479 314 531 q 263 374 280 426 l 263 374 q 358 365 313 371 q 438 358 402 359 l 438 358 q 420 340 430 346 q 390 330 409 333 q 338 326 371 327 q 248 323 304 324 l 248 323 q 233 273 242 302 q 217 218 224 244 q 206 180 210 192 l 206 180 q 169 36 184 103 q 152 -87 153 -31 z"},"G":{"ha":554,"x_min":22,"x_max":537,"o":"m 209 -87 l 209 -87 q 115 -57 157 -87 q 47 28 72 -28 q 22 161 22 83 l 22 161 q 46 317 22 238 q 112 468 70 396 q 206 597 153 540 q 318 686 259 653 q 433 719 376 719 l 433 719 q 494 703 471 719 q 527 662 517 687 q 537 606 537 636 l 537 606 q 525 538 537 571 q 493 482 513 504 q 449 460 473 460 l 449 460 q 433 465 441 460 q 418 483 424 470 l 418 483 q 451 519 432 493 q 483 577 469 545 q 496 636 496 609 l 496 636 q 483 674 496 659 q 436 689 469 689 l 436 689 q 347 654 393 689 q 257 561 300 619 q 178 430 213 502 q 123 283 143 358 q 102 141 102 208 l 102 141 q 140 -1 102 50 q 236 -53 178 -53 l 236 -53 q 310 -24 275 -53 q 372 50 345 4 q 416 148 399 95 q 436 250 432 201 l 436 250 q 376 261 399 258 q 333 263 353 263 l 333 263 q 306 263 320 263 q 272 262 291 262 l 272 262 q 297 303 279 291 q 340 314 314 314 l 340 314 q 399 305 368 314 q 458 284 429 295 q 509 267 487 273 l 509 267 l 502 235 q 471 148 483 185 q 453 82 459 110 q 444 31 446 53 q 441 -9 441 9 l 441 -9 q 443 -48 441 -29 q 445 -87 444 -67 l 445 -87 q 417 -70 429 -80 q 398 -47 404 -61 q 391 -15 391 -33 l 391 -15 q 393 7 391 -4 q 398 31 394 18 l 398 31 q 315 -53 362 -19 q 209 -87 268 -87 z"},"H":{"ha":617,"x_min":55,"x_max":632,"o":"m 55 -87 l 55 -87 q 69 -15 61 -52 q 90 67 77 21 q 120 172 102 112 q 165 314 138 232 l 165 314 q 133 311 149 313 q 99 307 116 309 l 99 307 q 123 347 100 332 q 182 368 145 361 l 182 368 q 197 412 189 389 q 212 459 204 434 q 229 509 220 483 q 248 562 238 534 q 267 619 257 590 l 267 619 q 276 647 271 630 q 281 678 281 663 l 281 678 q 279 689 281 686 q 267 692 276 692 l 267 692 q 221 673 243 692 q 181 623 198 653 q 153 561 163 593 q 143 504 143 529 l 143 504 q 145 486 143 495 q 148 470 146 477 l 148 470 q 102 487 115 470 q 88 527 88 503 l 88 527 q 108 595 88 561 q 160 658 128 629 q 226 703 191 686 q 288 720 260 720 l 288 720 q 325 705 315 720 q 334 672 334 690 l 334 672 q 332 650 334 661 q 326 629 329 639 l 326 629 l 248 375 q 277 377 262 376 q 306 377 291 377 l 306 377 q 396 375 353 377 q 476 368 438 372 l 476 368 q 516 494 496 432 q 552 603 535 556 q 577 668 568 649 l 577 668 q 588 688 581 676 q 607 710 595 700 q 632 720 618 720 l 632 720 q 600 626 618 683 q 564 500 582 568 q 527 364 545 432 l 527 364 q 566 362 547 363 q 602 360 584 360 l 602 360 q 559 333 580 337 q 518 328 538 328 l 518 328 q 501 257 509 291 q 487 191 493 222 l 487 191 q 462 46 469 106 q 454 -51 454 -14 l 454 -51 q 455 -71 454 -63 q 456 -87 455 -80 l 456 -87 q 402 -65 417 -83 q 387 -9 387 -47 l 387 -9 q 393 57 387 17 q 411 142 399 96 l 411 142 q 433 222 419 172 q 464 327 447 271 l 464 327 q 362 326 403 327 q 291 324 321 325 q 231 320 261 323 l 231 320 q 195 205 213 262 q 162 101 177 148 q 137 20 147 53 q 124 -23 127 -13 l 124 -23 q 93 -72 114 -57 q 55 -87 71 -87 z"},"I":{"ha":459,"x_min":-38,"x_max":548,"o":"m -38 -88 l -38 -88 q -11 -34 -34 -51 q 47 -13 11 -18 q 125 -8 83 -8 l 125 -8 q 161 88 143 31 q 196 209 179 144 q 228 342 212 274 q 258 471 244 409 q 285 583 272 533 q 307 661 297 632 l 307 661 q 219 658 255 660 q 151 652 182 656 q 82 641 119 648 l 82 641 q 137 699 89 679 q 286 718 185 718 l 286 718 q 388 714 336 718 q 482 706 439 710 q 548 697 525 701 l 548 697 q 498 668 524 673 q 451 662 471 662 l 451 662 q 393 662 420 662 q 342 661 365 662 l 342 661 q 330 596 338 640 q 311 494 322 551 q 288 375 300 436 q 265 258 276 313 q 243 162 253 202 l 243 162 q 207 54 227 98 q 159 -9 187 10 l 159 -9 q 270 -19 211 -12 q 376 -28 329 -27 l 376 -28 q 316 -64 347 -57 q 263 -71 284 -71 l 263 -71 q 185 -71 223 -71 q 109 -73 146 -72 q 35 -77 71 -74 q -38 -88 -2 -81 z"},"J":{"ha":411,"x_min":-31,"x_max":510,"o":"m 77 -86 l 77 -86 q 29 -77 54 -86 q -14 -40 3 -68 q -31 44 -31 -12 l -31 44 q -22 122 -31 83 q 5 186 -13 160 q 45 212 22 212 l 45 212 q 73 204 57 212 l 73 204 q 46 118 55 158 q 37 44 37 78 l 37 44 q 53 -26 37 -1 q 100 -51 69 -51 l 100 -51 q 147 -29 126 -51 q 189 54 167 -7 l 189 54 q 223 161 205 98 q 258 295 240 223 q 291 437 275 366 q 320 567 307 507 q 340 667 333 627 l 340 667 q 258 665 291 667 q 197 659 224 663 q 138 647 170 655 l 138 647 q 182 700 143 681 q 301 718 220 718 l 301 718 q 382 714 341 718 q 458 706 423 710 q 510 697 492 701 l 510 697 q 474 673 499 678 q 433 668 449 668 l 433 668 q 396 668 413 668 q 362 667 378 667 l 362 667 q 378 645 373 659 q 383 620 383 631 l 383 620 q 376 563 383 607 q 356 455 369 518 q 325 321 343 392 q 286 182 307 250 q 241 61 265 114 l 241 61 q 189 -30 215 1 q 135 -74 162 -62 q 77 -86 107 -86 z"},"K":{"ha":590,"x_min":30,"x_max":605,"o":"m 495 -87 l 495 -87 q 444 -61 473 -87 q 383 8 415 -35 q 319 102 350 51 q 261 202 287 152 q 216 291 234 252 l 216 291 l 119 -23 q 97 -55 112 -46 q 65 -67 82 -65 q 30 -69 47 -69 l 30 -69 q 57 -5 43 -41 q 89 82 70 31 q 132 206 107 133 q 192 381 157 279 q 273 619 226 482 l 273 619 q 281 642 276 627 q 286 668 286 656 l 286 668 q 281 686 286 679 q 262 692 276 692 l 262 692 q 216 673 238 692 q 176 623 193 653 q 148 561 158 593 q 138 504 138 529 l 138 504 q 143 470 138 485 l 143 470 q 97 487 110 470 q 83 527 83 503 l 83 527 q 103 595 83 561 q 155 658 123 629 q 221 703 186 686 q 283 720 255 720 l 283 720 q 320 705 310 720 q 329 672 329 690 l 329 672 q 327 650 329 661 q 321 629 324 639 l 321 629 l 237 357 q 274 394 251 377 q 323 433 296 411 l 323 433 q 420 517 368 469 q 518 618 471 565 q 596 720 565 671 l 596 720 q 603 699 601 714 q 605 676 605 684 l 605 676 q 580 608 605 645 q 513 532 554 571 q 423 454 472 492 q 327 381 374 415 q 241 322 279 347 l 241 322 q 300 225 271 271 q 362 135 328 179 q 440 45 395 91 q 549 -54 485 -1 l 549 -54 q 527 -77 542 -67 q 495 -87 512 -87 z"},"L":{"ha":570,"x_min":-74,"x_max":566,"o":"m 397 -87 l 397 -87 q 318 -72 361 -87 q 228 -35 274 -57 q 137 6 182 -14 l 137 6 q 85 -37 112 -22 q 26 -53 58 -53 l 26 -53 q -28 -38 -6 -53 q -62 -2 -51 -23 q -74 34 -74 18 l -74 34 q -57 65 -74 52 q -1 78 -41 78 l -1 78 q 57 72 25 78 q 122 57 88 66 l 122 57 q 167 155 146 99 q 207 274 187 211 q 247 400 227 337 l 247 400 q 175 444 201 415 q 148 507 148 473 l 148 507 q 156 543 148 525 q 177 574 163 561 q 210 586 191 586 l 210 586 q 200 557 203 576 q 197 524 197 538 l 197 524 q 213 461 197 486 q 254 421 229 435 l 254 421 q 296 535 274 481 q 343 630 317 588 q 400 696 369 672 q 469 720 431 720 l 469 720 q 512 711 489 720 q 550 680 534 702 q 566 618 566 658 l 566 618 q 552 545 566 584 q 509 470 538 505 q 435 412 480 434 q 329 388 390 389 l 329 388 q 325 388 328 388 q 310 388 321 388 l 310 388 q 268 264 290 327 q 220 145 245 201 q 166 44 195 88 l 166 44 q 259 16 212 30 q 350 -8 306 1 q 431 -18 394 -18 l 431 -18 q 469 -14 452 -18 q 502 -2 486 -10 l 502 -2 q 460 -67 486 -48 q 397 -87 433 -87 z m 22 -24 l 22 -24 q 64 -12 44 -24 q 99 22 83 0 l 99 22 q 39 44 68 35 q -15 52 9 52 l -15 52 q -41 47 -34 52 q -48 33 -48 42 l -48 33 q -28 -4 -48 16 q 22 -24 -9 -24 z m 316 407 l 316 407 q 398 433 361 407 q 460 497 434 458 q 499 575 485 535 q 512 645 512 615 l 512 645 q 501 685 512 674 q 476 695 490 695 l 476 695 q 418 655 445 695 q 367 550 391 615 q 316 407 342 484 z"},"M":{"ha":763,"x_min":-17,"x_max":743,"o":"m -17 -87 l -17 -87 q 16 -13 -11 -73 q 87 142 43 46 q 185 359 130 237 q 300 616 239 480 l 300 616 q 307 635 303 623 q 310 657 310 646 l 310 657 q 304 676 310 668 q 276 683 297 683 l 276 683 q 207 655 234 683 q 166 584 179 626 q 152 501 152 542 l 152 501 q 153 484 152 491 q 154 470 153 477 l 154 470 q 124 484 135 470 q 107 517 112 497 q 101 552 101 536 l 101 552 q 119 615 101 585 q 166 669 137 645 q 229 707 194 693 q 296 720 263 720 l 296 720 q 352 702 329 720 q 386 635 374 683 q 397 496 397 587 l 397 496 q 393 364 397 434 q 383 226 388 294 q 376 102 378 158 l 376 102 q 422 232 392 163 q 487 370 451 301 q 557 498 522 438 q 620 602 592 558 q 661 666 648 646 l 661 666 q 685 697 675 686 q 711 707 695 707 l 711 707 q 743 700 725 707 l 743 700 q 724 647 736 682 q 698 560 711 611 l 698 560 q 666 422 682 499 q 637 264 650 344 q 615 114 623 184 q 607 -5 607 43 l 607 -5 q 609 -39 607 -27 q 615 -60 611 -51 q 622 -87 618 -70 l 622 -87 q 570 -76 588 -87 q 546 -40 552 -65 q 540 25 540 -16 l 540 25 q 571 281 540 144 q 640 564 601 417 l 640 564 q 580 471 611 527 q 517 349 548 414 q 457 218 485 283 q 406 96 428 152 q 372 3 384 40 l 372 3 q 364 0 366 1 q 357 -1 362 -1 l 357 -1 q 322 31 330 -1 q 313 121 313 63 l 313 121 q 316 219 313 162 q 321 335 318 275 q 327 451 324 395 q 329 546 329 506 l 329 546 q 329 579 329 566 q 327 602 328 592 l 327 602 q 193 285 247 416 q 103 71 139 153 q 38 -49 66 -11 q -17 -87 10 -87 z"},"N":{"ha":640,"x_min":46,"x_max":663,"o":"m 46 -87 l 46 -87 q 76 20 58 -39 q 120 161 94 79 q 179 354 145 242 q 258 619 213 466 l 258 619 q 263 637 260 624 q 265 660 265 649 l 265 660 q 262 677 265 670 q 250 683 258 683 l 250 683 q 205 665 226 683 q 168 618 183 646 q 143 560 152 590 q 134 505 134 529 l 134 505 q 139 470 134 485 l 139 470 q 93 487 106 470 q 79 527 79 503 l 79 527 q 99 595 79 561 q 150 658 119 629 q 216 703 181 686 q 279 720 250 720 l 279 720 q 329 695 309 720 q 360 625 348 669 q 380 524 372 580 q 395 408 388 468 l 395 408 q 407 309 401 358 q 419 215 413 259 q 430 133 425 170 q 439 72 435 96 l 439 72 q 460 179 446 119 q 490 303 473 238 q 524 429 506 367 q 558 542 542 490 q 585 628 573 593 q 600 671 596 662 l 600 671 q 623 702 605 684 q 663 720 641 720 l 663 720 q 625 608 646 674 q 581 464 603 541 q 538 306 559 386 q 501 150 517 225 q 475 14 484 75 q 464 -87 465 -48 l 464 -87 q 414 -69 433 -87 q 386 -6 394 -51 l 386 -6 q 374 66 381 20 q 358 167 366 111 q 340 284 349 223 q 323 402 331 344 q 307 509 314 460 q 295 589 300 557 l 295 589 q 213 297 247 416 q 156 102 179 177 q 114 -15 132 26 q 80 -71 96 -56 q 46 -87 64 -87 z"},"O":{"ha":623,"x_min":21,"x_max":602,"o":"m 213 -87 l 213 -87 q 113 -56 156 -87 q 46 30 70 -26 q 21 161 21 86 l 21 161 q 46 317 21 238 q 112 468 70 396 q 207 597 154 540 q 319 686 260 653 q 435 719 378 719 l 435 719 q 469 716 454 719 q 495 707 484 713 l 495 707 q 486 707 487 707 q 483 707 484 707 l 483 707 q 378 673 431 707 q 277 580 325 638 q 191 449 229 521 q 131 298 153 376 q 109 147 109 220 l 109 147 q 123 48 109 94 q 166 -25 136 2 q 243 -53 196 -53 l 243 -53 q 348 -18 299 -53 q 437 75 397 16 q 505 207 476 134 q 549 357 533 279 q 564 505 564 434 l 564 505 q 560 565 564 533 q 546 620 556 597 q 519 643 536 643 l 519 643 q 480 621 501 643 q 440 564 459 598 q 405 494 420 530 q 384 429 390 457 l 384 429 q 348 449 359 435 q 336 478 336 462 l 336 478 q 355 538 336 505 q 402 601 373 570 q 461 651 430 631 q 517 670 492 670 l 517 670 q 560 651 543 670 q 586 603 576 632 q 599 540 595 573 q 602 477 602 506 l 602 477 q 578 279 602 368 q 512 121 553 189 q 419 7 470 53 q 315 -63 368 -40 q 213 -87 261 -87 z"},"P":{"ha":527,"x_min":18,"x_max":586,"o":"m 87 -87 l 87 -87 q 40 -73 62 -87 q 18 -37 18 -59 l 18 -37 q 23 -10 18 -26 q 32 18 28 5 l 32 18 q 92 201 64 116 q 148 366 120 286 q 208 526 176 446 q 278 693 239 606 l 278 693 q 211 673 240 686 q 163 649 181 659 q 139 638 145 638 l 139 638 q 128 643 135 638 q 114 654 120 647 q 108 665 108 660 l 108 665 q 170 689 134 676 q 246 711 205 702 q 329 720 287 720 l 329 720 q 419 708 373 720 q 502 672 464 696 q 563 611 540 647 q 586 527 586 575 l 586 527 q 563 438 586 475 q 502 375 540 400 q 420 334 464 349 q 333 310 376 318 q 255 299 289 301 q 205 296 221 296 l 205 296 l 195 296 q 138 93 165 193 q 87 -87 110 -7 z m 199 312 l 199 312 q 311 330 254 315 q 414 374 367 345 q 490 445 461 402 q 519 544 519 487 l 519 544 q 494 632 519 598 q 427 683 468 666 q 338 699 385 699 l 338 699 q 266 524 301 626 q 199 312 231 422 z"},"Q":{"ha":693,"x_min":35,"x_max":634,"o":"m 516 -119 l 516 -119 q 431 -93 470 -119 q 356 -37 392 -68 l 356 -37 q 307 -56 332 -49 q 256 -63 282 -63 l 256 -63 q 200 -52 222 -63 q 167 -27 178 -42 q 151 3 155 -12 q 146 25 146 17 l 146 25 q 163 60 146 42 q 219 77 179 77 l 219 77 q 299 58 260 77 q 378 13 338 38 l 378 13 q 458 115 423 53 q 516 248 492 177 q 552 388 539 319 q 564 509 564 456 l 564 509 q 533 642 564 591 q 432 693 502 693 l 432 693 q 324 659 374 693 q 234 566 274 624 q 164 437 193 508 q 120 289 135 365 q 104 144 104 213 l 104 144 q 106 102 104 123 q 112 60 108 81 l 112 60 q 65 80 81 60 q 42 132 48 100 q 35 199 35 163 l 35 199 q 55 349 35 274 q 112 490 75 423 q 198 609 148 557 q 307 690 247 660 q 431 720 366 720 l 431 720 q 581 655 527 720 q 634 477 634 589 l 634 477 q 617 346 634 414 q 570 212 600 277 q 498 90 539 146 q 408 -4 457 34 l 408 -4 q 479 -36 442 -23 q 556 -50 515 -50 l 556 -50 q 589 -46 578 -50 q 614 -38 599 -42 l 614 -38 q 587 -90 604 -73 q 551 -113 569 -108 q 516 -119 532 -119 z m 256 -38 l 256 -38 q 297 -32 277 -38 q 334 -17 316 -27 l 334 -17 q 273 31 303 10 q 209 51 242 51 l 209 51 q 179 42 186 51 q 172 24 172 32 l 172 24 q 179 1 172 15 q 204 -26 186 -14 q 256 -38 222 -38 z"},"R":{"ha":577,"x_min":16,"x_max":581,"o":"m 464 -121 l 464 -121 q 413 -93 442 -121 q 351 -21 383 -66 q 288 76 319 23 q 230 182 256 129 q 185 277 203 235 l 185 277 q 131 85 157 179 q 82 -87 105 -10 l 82 -87 q 37 -73 57 -87 q 16 -37 16 -59 l 16 -37 q 21 -10 16 -26 q 30 18 26 5 l 30 18 q 79 167 55 97 q 126 302 103 237 q 174 431 149 367 q 225 560 198 495 q 283 695 252 625 l 283 695 q 210 675 241 688 q 160 650 179 661 q 134 638 141 638 l 134 638 q 123 643 130 638 q 109 654 115 647 q 103 665 103 660 l 103 665 q 164 689 129 676 q 241 711 199 702 q 328 720 283 720 l 328 720 q 416 710 371 720 q 498 677 460 699 q 558 619 535 654 q 581 533 581 583 l 581 533 q 559 449 581 484 q 500 389 536 413 q 420 351 463 365 q 335 329 377 336 q 259 319 293 321 q 208 316 225 316 l 208 316 q 267 213 239 263 q 328 114 295 163 q 406 14 361 64 q 515 -88 451 -36 l 515 -88 q 494 -111 509 -101 q 464 -121 478 -121 z m 201 332 l 201 332 q 311 350 255 335 q 412 391 366 364 q 486 458 458 417 q 514 554 514 498 l 514 554 q 488 641 514 609 q 421 686 462 672 q 335 699 380 699 l 335 699 q 267 534 301 630 q 201 332 233 437 z"},"S":{"ha":536,"x_min":-6,"x_max":492,"o":"m 203 -87 l 203 -87 q 101 -67 149 -87 q 24 -8 53 -48 q -6 92 -6 32 l -6 92 q 15 173 -6 144 q 65 214 35 202 q 122 226 95 226 l 122 226 q 81 162 95 197 q 67 92 67 127 l 67 92 q 84 23 67 55 q 134 -28 100 -9 q 220 -48 168 -48 l 220 -48 q 308 -31 265 -48 q 379 18 351 -15 q 406 98 406 50 l 406 98 q 384 172 406 141 q 328 227 362 203 q 254 273 293 251 q 181 320 215 295 q 124 376 146 344 q 102 453 102 408 l 102 453 q 122 541 102 495 q 180 628 142 587 q 270 695 217 669 q 387 720 322 720 l 387 720 q 469 692 446 720 q 492 620 492 663 l 492 620 q 480 543 492 584 q 449 464 467 501 q 415 400 431 426 l 415 400 q 390 416 397 404 q 382 443 382 427 l 382 443 q 391 491 382 464 q 412 547 400 518 q 432 604 423 576 q 441 653 441 631 l 441 653 q 429 685 441 673 q 385 696 417 696 l 385 696 q 298 674 338 696 q 228 618 258 652 q 182 545 198 583 q 165 476 165 507 l 165 476 q 187 413 165 439 q 242 365 208 386 q 315 322 276 343 q 387 274 353 300 q 443 213 421 248 q 464 126 464 177 l 464 126 q 441 35 464 74 q 380 -32 418 -5 q 295 -73 341 -59 q 203 -87 249 -87 z"},"T":{"ha":490,"x_min":69,"x_max":635,"o":"m 187 -87 l 187 -87 q 125 -67 142 -87 q 108 -16 108 -47 l 108 -16 q 120 53 108 13 q 145 130 132 93 l 145 130 q 186 245 162 179 q 238 383 210 311 q 294 525 265 455 q 349 652 322 595 l 349 652 q 234 649 280 651 q 150 644 187 647 q 69 632 113 640 l 69 632 q 104 685 72 666 q 190 712 136 704 q 313 720 244 720 l 313 720 q 437 715 382 720 q 539 704 491 709 q 635 698 587 699 l 635 698 q 557 659 601 667 q 464 651 513 651 l 464 651 q 441 652 453 651 q 417 652 429 652 q 393 652 405 652 l 393 652 q 320 450 361 572 q 236 175 278 328 l 236 175 q 211 80 222 122 q 193 3 199 38 q 186 -65 186 -32 l 186 -65 q 186 -76 186 -70 q 187 -87 186 -82 z"},"U":{"ha":706,"x_min":25,"x_max":711,"o":"m 541 -99 l 541 -99 q 482 -67 504 -99 q 460 7 460 -36 l 460 7 q 463 45 460 21 q 469 98 465 68 l 469 98 q 379 -35 432 16 q 253 -87 326 -87 l 253 -87 q 156 -48 189 -87 q 123 49 123 -9 l 123 49 q 136 142 123 88 q 167 257 148 195 q 205 381 186 318 q 236 502 223 444 q 248 604 248 559 l 248 604 q 192 692 248 692 l 192 692 q 145 675 165 692 q 112 630 125 657 q 93 573 99 603 q 86 519 86 543 l 86 519 q 88 492 86 505 q 94 470 90 479 l 94 470 q 41 491 56 470 q 25 539 25 511 l 25 539 q 40 602 25 570 q 82 661 55 634 q 143 704 108 687 q 216 720 177 720 l 216 720 q 295 687 271 720 q 319 599 319 654 l 319 599 q 310 518 319 562 q 287 425 301 473 q 257 327 273 376 l 257 327 q 215 186 234 254 q 196 65 196 117 l 196 65 q 216 -14 196 19 q 280 -47 235 -47 l 280 -47 q 355 -20 321 -47 q 415 48 389 6 q 459 137 441 90 q 487 224 477 184 l 487 224 q 518 352 501 284 q 554 485 535 419 q 591 603 572 550 q 627 688 609 656 q 661 720 645 720 l 661 720 q 683 712 669 720 q 711 688 697 703 l 711 688 q 686 646 703 682 q 648 552 669 609 q 606 427 627 495 q 567 288 585 358 q 538 153 549 217 q 527 42 527 89 l 527 42 q 546 -51 527 -27 q 607 -75 564 -75 l 607 -75 q 572 -93 588 -88 q 541 -99 555 -99 z"},"V":{"ha":632,"x_min":25,"x_max":646,"o":"m 210 -87 l 210 -87 q 176 -80 196 -87 q 140 -57 155 -74 q 124 -7 124 -40 l 124 -7 q 137 69 124 22 q 168 175 149 116 q 206 298 187 233 q 238 427 225 362 q 250 552 250 492 l 250 552 q 248 621 250 589 q 233 673 245 653 q 190 692 220 692 l 190 692 q 143 676 162 692 q 111 633 123 659 q 93 578 98 607 q 87 524 87 549 l 87 524 q 90 495 87 508 q 96 470 92 481 l 96 470 q 41 492 57 470 q 25 542 25 513 l 25 542 q 40 604 25 573 q 80 662 54 635 q 138 704 105 688 q 208 720 171 720 l 208 720 q 301 672 270 720 q 331 542 331 623 l 331 542 q 318 421 331 484 q 286 294 305 357 q 248 173 267 231 q 215 66 228 115 q 202 -17 202 17 l 202 -17 q 208 -45 202 -34 q 230 -56 213 -56 l 230 -56 q 295 -27 258 -56 q 372 51 332 1 q 449 162 411 100 q 516 292 486 224 q 564 424 546 359 q 582 544 582 489 l 582 544 q 567 618 582 594 q 527 648 552 641 l 527 648 q 557 683 541 672 q 585 694 572 694 l 585 694 q 626 667 606 694 q 646 583 646 640 l 646 583 q 626 458 646 528 q 570 313 605 388 q 490 166 535 237 q 396 38 445 95 q 299 -53 347 -19 q 210 -87 251 -87 z"},"W":{"ha":906,"x_min":25,"x_max":919,"o":"m 210 -87 l 210 -87 q 185 -83 199 -87 q 156 -71 170 -80 q 133 -47 142 -63 q 124 -7 124 -32 l 124 -7 q 141 86 124 28 q 180 213 158 143 l 180 213 q 213 325 197 267 q 240 441 229 383 q 250 552 250 499 l 250 552 q 248 621 250 589 q 233 673 245 653 q 190 692 220 692 l 190 692 q 143 676 162 692 q 111 633 123 659 q 93 578 98 607 q 87 524 87 549 l 87 524 q 96 470 87 491 l 96 470 q 41 492 57 470 q 25 542 25 513 l 25 542 q 40 604 25 573 q 80 662 54 635 q 138 704 105 688 q 208 720 171 720 l 208 720 q 301 672 270 720 q 331 542 331 623 l 331 542 q 311 388 331 469 q 265 229 290 306 l 265 229 q 235 134 249 179 q 211 50 220 88 q 202 -17 202 12 l 202 -17 q 208 -46 202 -36 q 232 -56 214 -56 l 232 -56 q 288 -32 257 -56 q 350 31 318 -9 q 411 120 381 71 q 465 219 440 168 q 506 316 489 270 q 526 395 522 362 l 526 395 q 573 378 559 395 q 586 346 586 361 l 586 346 q 573 297 586 330 q 542 223 560 264 l 542 223 q 512 146 527 187 q 486 64 496 105 q 475 -14 475 23 l 475 -14 q 480 -44 475 -33 q 503 -56 485 -56 l 503 -56 q 568 -27 531 -56 q 645 51 605 1 q 722 162 684 100 q 789 292 759 224 q 837 424 819 359 q 855 544 855 489 l 855 544 q 840 618 855 594 q 800 648 825 641 l 800 648 q 830 683 814 672 q 858 694 845 694 l 858 694 q 899 667 879 694 q 919 583 919 640 l 919 583 q 899 458 919 528 q 843 313 878 388 q 763 166 808 237 q 669 38 718 95 q 572 -53 620 -19 q 483 -87 524 -87 l 483 -87 q 444 -79 464 -87 q 411 -54 424 -71 q 397 -12 397 -38 l 397 -12 q 403 27 397 3 q 417 78 408 50 l 417 78 q 313 -40 366 6 q 210 -87 259 -87 z"},"X":{"ha":662,"x_min":25,"x_max":652,"o":"m 25 -112 l 25 -112 q 34 -76 28 -90 q 49 -49 39 -62 q 74 -21 59 -37 l 74 -21 q 136 48 106 14 q 195 116 166 82 q 250 182 223 149 q 301 246 276 214 l 301 246 q 298 303 299 279 q 295 348 296 326 q 293 398 293 370 q 291 468 292 426 l 291 468 q 287 595 290 545 q 272 668 284 644 q 232 692 260 692 l 232 692 q 188 675 207 692 q 155 632 168 658 q 135 575 142 605 q 128 519 128 545 l 128 519 q 136 470 128 489 l 136 470 q 83 491 98 470 q 67 539 67 511 l 67 539 q 82 602 67 570 q 124 661 97 634 q 184 704 150 687 q 255 720 218 720 l 255 720 q 318 701 294 720 q 353 646 341 681 q 369 564 365 611 q 374 461 373 517 q 375 344 374 405 l 375 344 q 511 551 455 455 q 597 722 567 647 l 597 722 q 613 703 605 717 q 620 674 620 688 l 620 674 q 601 615 620 654 q 547 524 581 576 q 469 411 513 471 q 376 289 425 351 l 376 289 q 384 165 378 225 q 400 56 389 104 q 428 -21 410 7 q 470 -50 445 -50 l 470 -50 q 543 8 500 -50 q 640 162 586 66 l 640 162 l 652 152 q 582 22 614 75 q 516 -59 549 -32 q 443 -87 483 -87 l 443 -87 q 375 -60 401 -87 q 335 10 349 -33 q 314 103 320 53 q 304 198 307 153 l 304 198 q 190 62 245 125 q 91 -48 134 -2 q 25 -112 47 -94 z"},"Y":{"ha":666,"x_min":23,"x_max":709,"o":"m 255 -187 l 255 -187 q 158 -163 198 -187 q 117 -93 117 -139 l 117 -93 q 132 -47 117 -67 q 177 -18 146 -28 l 177 -18 q 171 -47 173 -33 q 169 -72 169 -61 l 169 -72 q 191 -137 169 -113 q 256 -162 213 -162 l 256 -162 q 328 -142 296 -162 q 382 -89 359 -122 q 421 -19 405 -57 q 448 56 437 19 q 465 121 459 93 l 465 121 q 484 210 473 155 q 507 326 494 264 l 507 326 q 415 201 467 250 q 290 151 362 151 l 290 151 q 206 185 231 151 q 181 270 181 218 l 181 270 q 192 355 181 309 q 215 448 202 401 q 239 537 228 494 q 249 614 249 580 l 249 614 q 237 669 249 646 q 192 692 224 692 l 192 692 q 144 675 164 692 q 111 630 124 657 q 91 574 97 603 q 84 519 84 544 l 84 519 q 86 492 84 505 q 92 470 88 479 l 92 470 q 39 491 54 470 q 23 539 23 511 l 23 539 q 38 602 23 570 q 80 661 53 634 q 141 704 106 687 q 214 720 175 720 l 214 720 q 275 705 252 720 q 308 666 298 689 q 318 619 318 643 l 318 619 q 308 550 318 591 q 284 462 297 508 l 284 462 q 261 372 271 417 q 251 287 251 327 l 251 287 q 268 218 251 244 q 321 191 284 191 l 321 191 q 387 213 356 191 q 445 272 418 235 q 494 353 472 309 q 533 440 516 397 l 533 440 q 561 545 546 494 q 590 635 575 595 q 621 697 605 674 q 653 720 637 720 l 653 720 q 679 712 663 720 q 709 688 695 703 l 709 688 q 673 626 688 655 q 645 561 658 596 q 617 479 631 526 q 586 362 603 431 q 544 194 568 293 l 544 194 q 516 89 531 143 q 480 -14 501 35 q 428 -102 458 -63 q 356 -164 398 -141 q 255 -187 313 -187 z"},"Z":{"ha":631,"x_min":-25,"x_max":660,"o":"m 447 -87 l 447 -87 q 370 -73 412 -87 q 284 -38 328 -59 q 195 2 239 -18 l 195 2 q 129 -39 161 -24 q 67 -54 97 -54 l 67 -54 q 18 -41 38 -54 q -14 -10 -3 -29 q -25 26 -25 8 l -25 26 q -7 63 -25 47 q 52 78 10 78 l 52 78 q 116 71 81 78 q 188 52 150 63 l 188 52 q 287 174 236 102 q 383 321 337 245 l 383 321 q 319 318 346 320 q 253 310 291 315 l 253 310 l 219 305 q 241 348 221 333 q 295 369 261 363 q 368 375 328 375 l 368 375 q 391 375 379 375 q 413 373 402 374 l 413 373 q 483 505 452 442 q 530 610 514 567 l 530 610 q 494 622 514 614 q 452 637 474 629 l 452 637 q 351 674 404 656 q 252 692 297 692 l 252 692 q 195 679 220 692 q 154 635 169 666 q 139 548 139 603 l 139 548 q 140 534 139 540 q 141 523 140 528 q 143 513 142 518 l 143 513 q 102 537 114 518 q 89 585 89 555 l 89 585 q 141 686 89 652 q 282 720 193 720 l 282 720 q 381 711 335 720 q 468 688 426 701 q 550 666 510 675 q 628 656 589 656 l 628 656 q 646 657 638 656 q 660 658 653 657 l 660 658 q 634 638 646 646 q 610 623 621 629 l 610 623 q 555 505 588 571 q 480 367 521 438 l 480 367 q 537 361 510 364 q 586 358 563 358 l 586 358 q 562 335 575 342 q 524 326 548 328 q 454 323 499 324 l 454 323 q 349 167 405 242 q 236 38 292 92 l 236 38 q 366 0 301 18 q 481 -18 430 -18 l 481 -18 q 519 -14 502 -18 q 552 -2 536 -10 l 552 -2 q 510 -67 536 -48 q 447 -87 483 -87 z m 62 -27 l 62 -27 q 106 -14 82 -27 q 154 20 129 -2 l 154 20 q 91 43 121 34 q 38 52 61 52 l 38 52 q 9 45 16 52 q 1 28 1 38 l 1 28 q 18 -7 1 12 q 62 -27 34 -27 z"},"a":{"ha":436,"x_min":-26,"x_max":466,"o":"m 48 -47 l 48 -47 q -4 -26 17 -47 q -26 36 -26 -6 l -26 36 q -10 114 -26 72 q 34 196 6 155 q 98 270 62 236 q 173 323 133 303 q 251 343 212 343 l 251 343 q 316 323 290 343 q 342 268 342 302 l 342 268 q 329 234 342 243 q 293 225 315 225 l 293 225 q 297 243 295 233 q 298 260 298 252 l 298 260 q 287 300 298 283 q 249 316 276 316 l 249 316 q 192 297 221 316 q 136 245 163 277 q 88 174 109 212 q 55 99 67 136 q 43 33 43 62 l 43 33 q 70 -6 43 -6 l 70 -6 q 120 16 93 -6 q 176 71 147 37 q 230 140 204 104 q 276 206 256 176 l 276 206 q 281 212 280 212 l 281 212 q 297 208 287 211 q 313 200 306 205 q 320 187 320 195 l 320 187 q 311 163 320 178 q 291 127 302 147 q 271 87 280 107 q 262 48 262 66 l 262 48 q 270 19 262 33 q 296 4 278 4 l 296 4 q 367 44 323 4 q 456 162 411 83 l 456 162 l 466 152 q 412 57 445 98 q 342 -7 379 16 q 268 -30 304 -30 l 268 -30 q 214 -8 231 -30 q 196 40 196 14 l 196 40 q 197 54 196 46 q 199 69 198 61 l 199 69 q 121 -18 156 11 q 48 -47 85 -47 z"},"b":{"ha":394,"x_min":-10,"x_max":427,"o":"m 93 -73 l 93 -73 q 16 -39 41 -73 q -10 53 -10 -5 l -10 53 q 7 171 -10 103 q 52 314 24 239 q 115 459 80 388 q 184 588 149 530 q 250 680 219 645 q 301 714 281 714 l 301 714 q 326 693 318 714 q 333 651 333 672 l 333 651 q 321 583 333 623 q 287 498 309 543 q 236 408 265 452 q 174 328 207 364 q 105 270 140 291 l 105 270 q 88 225 99 259 q 67 146 76 190 q 57 59 57 101 l 57 59 q 70 -8 57 18 q 112 -35 82 -35 l 112 -35 q 172 -11 141 -35 q 222 49 203 12 l 222 49 q 167 105 185 68 q 149 178 149 141 l 149 178 q 174 255 149 226 q 233 284 199 284 l 233 284 q 279 261 262 284 q 296 192 296 237 l 296 192 q 287 124 296 159 q 261 56 278 89 l 261 56 q 274 54 267 55 q 287 53 280 53 l 287 53 q 347 71 323 53 q 388 114 371 88 q 415 162 404 139 l 415 162 l 427 149 q 361 58 399 80 q 284 35 322 35 l 284 35 q 268 36 276 35 q 252 38 260 37 l 252 38 q 186 -40 225 -8 q 93 -73 146 -73 z m 232 69 l 232 69 q 249 118 243 92 q 255 170 255 143 l 255 170 q 246 225 255 205 q 222 245 236 245 l 222 245 q 196 225 207 245 q 184 173 184 204 l 184 173 q 195 116 184 146 q 232 69 206 86 z m 116 309 l 116 309 q 171 365 144 331 q 220 438 197 399 q 261 513 243 476 q 289 580 279 550 q 299 625 299 610 l 299 625 q 298 632 299 630 q 295 633 297 633 l 295 633 q 265 605 287 633 q 215 529 242 576 q 160 424 187 481 q 116 309 133 366 z"},"c":{"ha":323,"x_min":-5,"x_max":355,"o":"m 107 -56 l 107 -56 q 27 -24 59 -56 q -5 72 -5 8 l -5 72 q 15 170 -5 122 q 66 255 34 217 q 137 316 98 293 q 214 338 176 338 l 214 338 q 270 314 255 338 q 285 264 285 290 l 285 264 q 272 213 285 235 q 235 191 258 191 l 235 191 q 206 206 218 191 l 206 206 q 232 239 221 214 q 243 285 243 263 l 243 285 q 239 304 243 297 q 221 310 234 310 l 221 310 q 166 286 194 310 q 113 224 137 262 q 73 144 88 186 q 57 65 57 102 l 57 65 q 72 8 57 34 q 130 -18 87 -18 l 130 -18 q 211 4 170 -18 q 286 67 251 26 q 342 163 321 108 l 342 163 l 355 153 q 292 46 332 93 q 204 -29 252 -2 q 107 -56 156 -56 z"},"d":{"ha":473,"x_min":-16,"x_max":545,"o":"m 59 -30 l 59 -30 q 25 -21 42 -30 q -4 6 7 -13 q -16 54 -16 25 l -16 54 q 0 128 -16 87 q 43 210 16 169 q 105 285 70 250 q 178 340 140 319 q 253 360 216 360 l 253 360 q 286 353 274 360 q 297 329 297 345 l 297 329 q 297 322 297 325 q 295 315 296 319 l 295 315 q 281 327 290 323 q 257 330 271 330 l 257 330 q 195 311 225 330 q 139 260 164 291 q 94 192 113 228 q 65 123 75 156 q 54 66 54 89 l 54 66 q 64 31 54 44 q 90 18 74 18 l 90 18 q 156 52 117 18 q 234 148 194 86 q 306 293 274 210 l 306 293 q 352 411 328 351 q 399 527 375 471 q 446 626 423 582 q 489 695 468 669 q 525 720 509 720 l 525 720 q 539 714 533 720 q 545 697 545 707 l 545 697 q 529 643 545 681 q 486 551 512 604 q 430 434 459 497 q 375 306 401 371 q 332 181 348 241 q 315 70 315 120 l 315 70 q 318 28 315 42 q 338 14 321 14 l 338 14 q 387 32 359 14 q 443 83 415 50 q 492 162 471 116 l 492 162 l 504 153 q 452 62 485 102 q 382 -2 419 21 q 310 -26 344 -26 l 310 -26 q 259 -1 273 -26 q 244 49 244 23 l 244 49 q 249 94 244 66 q 263 156 254 122 l 263 156 q 195 61 231 103 q 125 -6 159 18 q 59 -30 90 -30 z"},"e":{"ha":333,"x_min":-14,"x_max":365,"o":"m 108 -44 l 108 -44 q 17 -10 47 -44 q -14 72 -14 23 l -14 72 q 9 167 -14 117 q 69 261 31 217 q 151 333 106 305 q 240 360 196 360 l 240 360 q 283 348 263 360 q 302 299 302 336 l 302 299 q 280 228 302 261 q 221 168 257 194 q 141 126 184 142 q 54 105 97 109 l 54 105 q 51 86 52 95 q 50 69 50 77 l 50 69 q 54 39 50 54 q 66 12 57 24 q 91 -8 75 -1 q 129 -15 106 -15 l 129 -15 q 214 10 172 -15 q 292 74 256 34 q 353 162 328 114 l 353 162 l 365 153 q 297 49 338 93 q 207 -19 255 5 q 108 -44 158 -44 z m 59 124 l 59 124 q 120 151 86 133 q 186 192 154 168 q 238 245 217 216 q 258 306 258 274 l 258 306 q 254 323 258 317 q 237 329 250 329 l 237 329 q 186 311 213 329 q 134 262 159 292 q 89 196 109 232 q 59 124 69 160 z"},"f":{"ha":312,"x_min":-68,"x_max":394,"o":"m -13 -280 l -13 -280 q -36 -273 -23 -280 q -58 -248 -49 -267 q -68 -192 -68 -229 l -68 -192 q -53 -77 -68 -148 q -12 78 -38 -7 q 48 253 14 163 q 122 426 82 342 q 203 576 161 509 q 284 681 244 642 q 360 720 324 720 l 360 720 q 388 707 381 720 q 394 676 394 694 l 394 676 q 371 582 394 633 q 308 480 347 531 q 222 382 269 428 q 127 302 175 335 l 127 302 q 118 278 122 290 q 108 252 113 265 l 108 252 q 126 241 119 250 q 133 220 132 231 l 133 220 q 148 140 140 175 q 173 84 156 104 q 220 64 189 64 l 220 64 q 279 90 255 64 q 331 162 303 115 l 331 162 l 346 152 q 283 65 321 92 q 215 38 244 38 l 215 38 q 178 47 197 38 q 141 71 158 56 l 141 71 q 128 -54 141 8 q 92 -167 114 -116 q 43 -249 70 -218 q -13 -280 16 -280 z m 13 -232 l 13 -232 q 38 -212 24 -232 q 66 -159 52 -192 q 90 -88 79 -127 q 108 -10 101 -49 q 115 60 115 29 l 115 60 q 107 117 115 91 q 81 177 99 142 l 81 177 q 36 32 56 102 q 5 -94 16 -38 q -6 -184 -6 -150 l -6 -184 q 13 -232 -6 -232 z m 143 343 l 143 343 q 256 464 208 403 q 329 572 303 524 q 355 639 355 619 l 355 639 q 341 653 355 653 l 341 653 q 282 611 315 653 q 213 498 249 568 q 143 343 177 428 z"},"g":{"ha":389,"x_min":-20,"x_max":420,"o":"m 38 -280 l 38 -280 q -2 -266 16 -280 q -20 -222 -20 -253 l -20 -222 q -1 -166 -20 -192 q 46 -119 17 -141 q 110 -80 75 -98 q 175 -46 144 -62 l 175 -46 q 202 30 189 -11 q 226 119 214 70 l 226 119 q 147 28 188 64 q 63 -9 105 -9 l 63 -9 q 8 18 27 -9 q -12 88 -12 45 l -12 88 q 14 187 -12 140 q 80 270 39 234 q 167 327 121 306 q 253 347 213 347 l 253 347 q 295 338 282 347 q 307 315 307 328 l 307 315 q 302 301 307 306 q 295 295 297 296 l 295 295 q 280 307 290 303 q 255 310 270 310 l 255 310 q 180 287 216 310 q 115 228 143 264 q 71 154 87 192 q 54 83 54 115 l 54 83 q 64 47 54 59 q 89 34 73 34 l 89 34 q 159 73 118 34 q 237 166 199 111 l 237 166 q 243 191 240 180 q 249 219 245 202 l 249 219 q 264 252 252 233 q 300 270 275 270 l 300 270 q 310 270 305 270 q 321 267 315 269 l 321 267 q 312 209 321 251 q 285 110 302 166 q 244 -7 267 53 l 244 -7 q 309 34 277 9 q 366 92 340 59 q 407 162 392 124 l 407 162 l 420 152 q 372 70 405 107 q 302 6 339 33 q 233 -36 264 -21 l 233 -36 q 174 -158 205 -103 q 110 -247 143 -214 q 38 -280 76 -280 z m 35 -248 l 35 -248 q 90 -208 55 -248 q 164 -73 124 -169 l 164 -73 q 90 -114 124 -93 q 33 -160 55 -136 q 11 -213 11 -184 l 11 -213 q 18 -238 11 -229 q 35 -248 25 -248 z"},"h":{"ha":476,"x_min":6,"x_max":508,"o":"m 47 -38 l 47 -38 q 17 -6 28 -38 q 6 66 6 26 l 6 66 q 22 180 6 114 q 64 319 38 246 q 123 462 90 392 q 189 589 155 532 q 253 680 223 646 q 305 714 283 714 l 305 714 q 331 693 323 714 q 338 651 338 671 l 338 651 q 326 583 338 623 q 291 498 313 543 q 240 408 269 452 q 177 328 211 364 q 108 270 143 291 l 108 270 q 88 205 96 241 q 75 135 79 169 q 71 73 71 100 l 71 73 q 72 54 71 62 q 73 39 72 46 l 73 39 q 104 119 87 80 q 139 190 120 157 q 180 247 158 222 q 225 285 201 271 q 276 298 249 298 l 276 298 q 321 285 304 298 q 345 251 337 271 q 352 208 352 230 l 352 208 q 342 148 352 177 q 320 92 331 119 q 309 40 309 65 l 309 40 q 318 11 309 20 q 339 2 326 2 l 339 2 q 391 24 362 2 q 447 83 419 46 q 495 162 475 119 l 495 162 l 508 150 q 457 62 487 101 q 391 -1 427 22 q 316 -24 355 -24 l 316 -24 q 265 -6 282 -24 q 247 39 247 12 l 247 39 q 255 86 247 60 q 271 139 263 112 q 278 190 278 166 l 278 190 q 267 227 278 216 q 240 238 256 238 l 240 238 q 195 218 215 238 q 159 167 175 198 q 128 100 142 135 q 100 34 113 65 q 74 -18 87 2 q 47 -38 61 -38 z m 121 309 l 121 309 q 176 365 149 331 q 225 438 202 399 q 266 513 248 476 q 294 580 284 550 q 304 625 304 610 l 304 625 q 303 632 304 630 q 300 633 302 633 l 300 633 q 272 606 293 633 q 222 532 250 578 q 167 428 194 486 q 121 309 140 370 z"},"i":{"ha":241,"x_min":-5,"x_max":269,"o":"m 72 -26 l 72 -26 q 14 -1 33 -26 q -5 58 -5 23 l -5 58 q 4 116 -5 81 q 26 190 12 151 q 59 262 40 228 q 98 318 77 296 q 139 339 119 339 l 139 339 q 155 334 148 339 q 161 317 161 328 l 161 317 q 146 278 161 305 q 109 216 130 251 q 73 143 88 181 q 57 69 57 104 l 57 69 q 69 21 57 33 q 106 9 81 9 l 106 9 q 179 43 140 9 q 260 162 217 77 l 260 162 l 269 152 q 186 20 240 66 q 72 -26 131 -26 z m 192 432 l 192 432 q 164 440 176 432 q 151 465 151 448 l 151 465 q 176 502 151 486 q 224 517 200 517 l 224 517 q 248 510 239 517 q 257 486 257 503 l 257 486 q 237 450 257 467 q 192 432 216 432 z"},"j":{"ha":218,"x_min":-192,"x_max":250,"o":"m -140 -280 l -140 -280 q -178 -265 -165 -280 q -192 -229 -192 -251 l -192 -229 q -156 -148 -192 -192 q -66 -73 -121 -104 l -66 -73 q -36 -58 -52 -65 q -2 -41 -21 -51 l -2 -41 q 35 69 18 7 q 65 205 52 130 l 65 205 q 38 158 50 178 q 18 126 25 138 l 18 126 l 9 141 q 40 208 26 172 q 66 275 53 243 q 91 327 78 307 q 119 347 104 347 l 119 347 q 137 339 130 347 q 143 317 143 330 l 143 317 q 138 275 143 306 q 122 198 132 243 q 96 99 111 152 q 63 -8 81 46 l 63 -8 q 121 27 92 9 q 180 75 150 45 q 237 157 209 105 l 237 157 l 250 150 q 191 57 225 91 q 120 2 156 22 q 53 -36 84 -18 l 53 -36 q 2 -154 31 -98 q -63 -245 -28 -210 q -140 -280 -99 -280 z m -149 -246 l -149 -246 q -91 -202 -129 -246 q -15 -73 -54 -159 l -15 -73 q -128 -150 -91 -110 q -166 -222 -166 -190 l -166 -222 q -161 -240 -166 -235 q -149 -246 -156 -246 z m 135 437 l 135 437 q 107 445 119 437 q 95 469 95 453 l 95 469 q 107 496 95 484 q 135 515 118 508 q 168 522 152 522 l 168 522 q 192 515 182 522 q 201 494 201 508 l 201 494 q 181 455 201 472 q 135 437 160 437 z"},"k":{"ha":446,"x_min":4,"x_max":475,"o":"m 297 -38 l 297 -38 q 249 -19 269 -38 q 218 29 229 0 q 201 89 206 58 q 195 142 195 119 l 195 142 q 227 148 206 142 q 270 165 248 153 q 308 195 292 176 q 323 238 323 213 l 323 238 q 308 271 323 259 q 273 283 293 283 l 273 283 q 215 262 242 283 q 167 206 188 240 q 128 132 145 171 q 99 58 111 93 q 79 0 87 23 l 79 0 q 62 -24 73 -18 q 39 -31 51 -31 l 39 -31 q 15 -17 22 -31 q 6 19 7 -3 q 4 63 4 40 l 4 63 q 21 183 4 115 q 67 325 38 251 q 129 467 95 398 q 197 592 163 536 q 260 681 231 648 q 307 714 289 714 l 307 714 q 330 695 321 714 q 338 649 338 676 l 338 649 q 323 573 338 615 q 281 487 308 530 q 216 406 253 444 q 134 341 178 368 l 134 341 q 85 184 101 260 q 68 55 68 107 l 68 55 q 107 143 84 95 q 158 235 129 191 q 221 307 187 279 q 292 335 255 335 l 292 335 q 355 309 329 335 q 381 246 381 283 l 381 246 q 365 192 381 214 q 325 156 348 169 q 278 136 301 142 q 239 129 254 129 l 239 129 q 245 100 240 121 q 260 56 250 79 q 283 17 269 33 q 317 0 297 0 l 317 0 q 372 22 346 0 q 422 81 398 44 q 465 163 445 117 l 465 163 l 475 153 q 432 61 461 104 q 368 -10 403 17 q 297 -38 332 -38 z m 151 381 l 151 381 q 232 465 197 418 q 285 556 266 512 q 304 624 304 599 l 304 624 q 304 631 304 629 q 301 633 303 633 l 301 633 q 267 598 291 633 q 211 506 242 563 q 151 381 180 448 z"},"l":{"ha":236,"x_min":3,"x_max":347,"o":"m 83 -30 l 83 -30 q 22 0 40 -30 q 3 73 3 29 l 3 73 q 21 187 3 121 q 69 326 39 253 q 133 469 98 399 q 203 595 168 538 q 268 686 238 652 q 314 720 297 720 l 314 720 q 332 708 325 720 q 343 678 339 695 q 347 646 347 660 l 347 646 q 334 576 347 619 q 296 479 320 532 q 238 371 271 425 q 165 266 204 316 q 81 180 125 216 l 81 180 q 72 128 75 153 q 68 79 68 102 l 68 79 q 79 21 68 40 q 112 2 90 2 l 112 2 q 166 26 139 2 q 216 87 192 50 q 256 162 239 123 l 256 162 l 271 154 q 184 20 231 69 q 83 -30 137 -30 z m 90 214 l 90 214 q 158 295 125 249 q 220 389 191 340 q 270 484 248 438 q 304 567 292 530 q 316 623 316 603 l 316 623 q 314 636 316 633 q 309 639 311 639 l 309 639 q 282 614 301 639 q 236 545 262 588 q 183 447 210 502 q 132 332 156 392 q 90 214 107 272 z"},"m":{"ha":646,"x_min":-35,"x_max":677,"o":"m 504 -31 l 504 -31 q 453 -9 469 -31 q 437 42 437 12 l 437 42 q 445 92 437 67 q 460 141 452 117 q 467 184 467 165 l 467 184 q 458 212 467 204 q 438 220 449 220 l 438 220 q 384 181 413 220 q 307 71 354 142 l 307 71 q 280 23 291 47 q 259 -22 269 -2 l 259 -22 q 239 -20 251 -22 q 218 -13 227 -18 q 208 -2 208 -9 l 208 -2 q 218 32 208 5 q 240 94 227 58 q 262 166 252 129 q 271 228 271 202 l 271 228 q 266 256 271 245 q 246 266 260 266 l 246 266 q 193 240 224 266 q 129 170 162 213 q 67 76 96 127 q 19 -27 37 24 l 19 -27 q -3 -24 10 -27 q -25 -16 -16 -21 q -35 -6 -35 -11 l -35 -6 q -24 30 -35 0 q 0 101 -14 59 q 24 185 13 142 q 34 261 34 228 l 34 261 q 53 275 40 268 q 80 282 66 282 l 80 282 q 101 275 94 282 q 107 256 107 268 l 107 256 q 100 212 107 243 q 81 142 92 180 l 81 142 q 127 208 101 174 q 180 269 152 241 q 237 315 208 297 q 292 332 265 332 l 292 332 q 335 310 323 332 q 346 256 346 287 l 346 256 q 341 204 346 231 q 328 153 335 176 q 315 115 321 129 l 315 115 q 362 189 336 153 q 417 247 387 224 q 481 269 447 269 l 481 269 q 526 250 513 269 q 538 205 538 231 l 538 205 q 529 148 538 179 q 511 88 520 117 q 501 38 501 59 l 501 38 q 508 15 501 25 q 531 4 514 4 l 531 4 q 584 30 559 4 q 629 92 608 55 q 665 162 650 128 l 665 162 l 677 148 q 636 65 661 106 q 578 -4 611 23 q 504 -31 544 -31 z"},"n":{"ha":466,"x_min":-38,"x_max":496,"o":"m 323 -20 l 323 -20 q 271 -2 288 -20 q 253 44 253 16 l 253 44 q 261 88 253 65 q 275 136 268 111 q 282 183 282 160 l 282 183 q 271 222 282 211 q 242 232 259 232 l 242 232 q 179 207 211 232 q 117 142 147 181 q 61 60 87 102 q 15 -15 35 18 l 15 -15 q -15 -9 -1 -15 q -38 7 -30 -4 l -38 7 q -27 38 -38 12 q -3 102 -17 64 q 22 180 11 140 q 33 253 33 220 l 33 253 q 52 267 39 260 q 79 274 65 274 l 79 274 q 106 248 106 274 l 106 248 q 97 195 106 232 q 74 116 88 157 l 74 116 q 135 198 101 157 q 206 265 168 238 q 282 292 244 292 l 282 292 q 339 264 321 292 q 356 202 356 236 l 356 202 q 346 145 356 171 q 326 94 336 118 q 315 44 315 69 l 315 44 q 324 15 315 23 q 345 6 332 6 l 345 6 q 395 30 370 6 q 444 89 420 53 q 485 162 467 125 l 485 162 l 496 149 q 449 62 475 100 q 392 2 423 24 q 323 -20 361 -20 z"},"o":{"ha":365,"x_min":-10,"x_max":396,"o":"m 69 -32 l 69 -32 q 8 -5 26 -32 q -10 59 -10 21 l -10 59 q 0 123 -10 90 q 27 185 10 156 q 64 232 43 214 q 105 250 84 250 l 105 250 q 116 249 110 250 q 126 245 121 247 l 126 245 q 105 216 117 237 q 81 167 92 194 q 63 112 70 139 q 55 66 55 85 l 55 66 q 65 23 55 36 q 91 9 75 9 l 91 9 q 141 32 112 9 q 198 89 170 54 l 198 89 q 155 150 170 112 q 139 226 139 187 l 139 226 q 151 288 139 259 q 184 335 162 317 q 237 352 206 352 l 237 352 q 292 330 278 352 q 306 275 306 308 l 306 275 q 287 189 306 236 q 239 97 268 141 l 239 97 q 277 87 257 87 l 277 87 q 313 94 293 87 q 353 116 333 100 q 384 159 372 132 l 384 159 l 396 149 q 340 83 376 102 q 270 63 303 63 l 270 63 q 245 66 257 63 q 222 73 233 68 l 222 73 q 148 -2 188 28 q 69 -32 107 -32 z m 216 115 l 216 115 q 258 193 241 152 q 274 269 274 233 l 274 269 q 266 312 274 298 q 244 325 257 325 l 244 325 q 203 296 224 325 q 182 223 182 267 l 182 223 q 191 165 182 194 q 216 115 199 135 z"},"p":{"ha":391,"x_min":-94,"x_max":360,"o":"m -63 -280 l -63 -280 q -78 -271 -71 -280 q -90 -253 -86 -263 q -94 -242 -94 -244 l -94 -242 q -66 -154 -80 -193 q -39 -75 -53 -116 q -13 20 -26 -35 q 14 155 0 74 q 42 356 28 236 l 42 356 q 46 369 43 365 q 61 373 49 373 l 61 373 q 98 359 87 373 q 109 327 109 344 l 109 327 q 103 277 109 313 q 86 192 97 241 l 86 192 q 129 259 103 225 q 187 316 154 293 q 259 339 220 339 l 259 339 q 332 308 303 339 q 360 225 360 276 l 360 225 q 343 143 360 186 q 294 61 325 99 q 219 -2 262 22 q 124 -26 176 -26 l 124 -26 q 82 -20 98 -26 q 66 -8 66 -14 l 66 -8 q 74 -3 66 -4 q 91 -3 81 -3 l 91 -3 q 168 17 131 -3 q 233 68 204 36 q 279 139 262 100 q 295 216 295 178 l 295 216 q 282 271 295 248 q 238 293 268 293 l 238 293 q 187 277 212 293 q 139 235 161 260 q 99 182 116 209 q 72 132 81 154 l 72 132 q 36 -12 54 57 q 2 -138 18 -82 q -28 -231 -15 -195 q -51 -275 -42 -267 l -51 -275 q -63 -280 -56 -280 z"},"q":{"ha":401,"x_min":-15,"x_max":432,"o":"m 194 -280 l 194 -280 q 170 -265 180 -280 q 159 -207 159 -250 l 159 -207 q 167 -120 159 -172 q 187 -10 174 -68 q 218 98 200 47 l 218 98 q 138 6 178 41 q 60 -30 97 -30 l 60 -30 q 26 -21 43 -30 q -3 6 8 -13 q -15 56 -15 25 l -15 56 q 1 132 -15 91 q 45 212 17 172 q 109 285 73 252 q 185 337 145 317 q 265 357 225 357 l 265 357 q 322 343 299 357 q 344 308 344 329 l 344 308 q 340 290 344 299 q 326 275 335 280 l 326 275 q 311 271 321 271 l 311 271 q 298 310 311 293 q 254 326 285 326 l 254 326 q 191 307 221 326 q 137 257 161 287 q 94 191 112 226 q 65 122 75 155 q 55 66 55 89 l 55 66 q 65 31 55 44 q 90 18 74 18 l 90 18 q 133 37 110 18 q 181 87 156 56 q 230 156 205 118 q 277 230 254 193 l 277 230 q 291 247 284 241 q 304 257 297 253 l 304 257 q 324 261 315 262 q 336 256 332 260 l 336 256 q 341 243 341 251 l 341 243 q 325 200 341 227 q 288 132 308 173 q 253 29 267 90 l 253 29 q 339 61 296 33 q 420 161 382 88 l 420 161 l 432 150 q 349 42 399 74 q 251 5 298 10 l 251 5 q 264 -49 259 -21 q 268 -108 268 -77 l 268 -108 q 259 -194 268 -155 q 232 -256 249 -233 q 194 -280 215 -280 z m 221 -225 l 221 -225 q 235 -206 229 -225 q 243 -157 240 -187 q 246 -99 246 -128 l 246 -99 q 245 -60 246 -79 q 239 -24 243 -42 l 239 -24 q 220 -123 226 -77 q 213 -197 213 -170 l 213 -197 q 215 -217 213 -210 q 221 -225 217 -225 z"},"r":{"ha":348,"x_min":1,"x_max":382,"o":"m 173 -26 l 173 -26 q 120 -8 139 -26 q 100 39 100 10 l 100 39 q 114 102 100 69 q 142 168 128 135 q 155 226 155 200 l 155 226 q 137 274 155 258 q 99 302 118 289 l 99 302 q 51 190 76 243 q 10 110 26 137 l 10 110 l 1 127 q 38 203 15 153 q 82 317 60 253 l 82 317 q 72 341 72 327 l 72 341 q 89 390 72 371 q 114 409 106 409 l 114 409 q 127 400 125 409 q 128 385 128 390 l 128 385 q 123 366 128 380 q 117 348 117 351 l 117 348 q 133 323 117 334 q 168 297 148 311 q 204 262 188 282 q 219 209 219 241 l 219 209 q 207 148 219 179 q 182 89 194 117 q 169 40 169 61 l 169 40 q 178 16 169 22 q 199 10 187 10 l 199 10 q 249 25 223 10 q 298 63 274 40 q 341 112 322 86 q 369 159 360 137 l 369 159 l 382 149 q 330 67 363 107 q 257 0 297 26 q 173 -26 216 -26 z"},"s":{"ha":345,"x_min":-20,"x_max":373,"o":"m 105 -51 l 105 -51 q 31 -30 58 -51 q -8 20 3 -10 q -20 80 -20 50 l -20 80 q -12 126 -20 110 q 8 150 -4 142 q 30 162 19 158 q 44 170 40 166 l 44 170 q 99 239 74 203 q 143 315 124 275 l 143 315 l 143 327 q 156 380 143 364 q 182 395 168 395 l 182 395 q 194 391 190 395 q 198 382 198 387 l 198 382 q 195 366 198 377 q 192 338 192 355 l 192 338 q 205 267 192 305 q 231 186 218 228 q 244 97 244 143 l 244 97 q 243 72 244 84 q 238 48 241 59 l 238 48 q 304 80 273 54 q 364 161 335 105 l 364 161 l 373 151 q 316 68 354 96 q 233 32 278 39 l 233 32 q 183 -31 217 -11 q 105 -51 148 -51 z m 107 -16 l 107 -16 q 139 -8 119 -16 q 170 33 159 0 l 170 33 q 96 66 128 41 q 47 116 63 91 l 47 116 q 25 81 25 115 l 25 81 q 47 15 25 45 q 107 -16 68 -16 z m 175 49 l 175 49 q 178 70 177 59 q 179 96 179 81 l 179 96 q 168 190 179 143 q 148 277 156 236 l 148 277 q 100 205 125 239 q 51 147 74 170 l 51 147 q 98 87 66 115 q 175 49 129 59 z"},"t":{"ha":285,"x_min":-4,"x_max":317,"o":"m 85 -46 l 85 -46 q 19 -21 42 -46 q -4 53 -4 4 l -4 53 q 13 162 -4 97 q 54 294 29 226 l 54 294 q 35 298 44 296 q 18 302 26 299 l 18 302 l 18 320 q 37 318 26 319 q 62 316 48 317 l 62 316 q 107 421 83 370 q 155 511 131 471 q 200 574 178 550 q 236 597 221 597 l 236 597 q 251 592 244 597 q 257 575 257 586 l 257 575 q 236 520 257 558 q 184 428 215 481 q 124 313 153 375 l 124 313 q 143 313 133 313 q 161 313 152 313 l 161 313 q 231 314 194 313 q 304 319 267 315 l 304 319 l 304 301 q 206 292 249 295 q 128 289 162 289 l 128 289 q 121 289 124 289 q 113 289 117 289 l 113 289 q 74 180 90 236 q 58 71 58 124 l 58 71 q 71 10 58 28 q 114 -9 84 -9 l 114 -9 q 216 37 166 -9 q 304 162 266 83 l 304 162 l 317 152 q 257 51 293 96 q 176 -20 220 6 q 85 -46 132 -46 z"},"u":{"ha":438,"x_min":0,"x_max":470,"o":"m 75 -30 l 75 -30 q 21 1 41 -30 q 0 71 0 31 l 0 71 q 10 138 0 100 q 33 213 19 176 q 62 274 47 250 q 88 298 77 298 l 88 298 q 105 293 93 298 q 125 278 117 287 l 125 278 q 98 226 114 261 q 70 151 82 191 q 58 77 58 111 l 58 77 q 60 53 58 69 q 70 23 62 36 q 94 10 78 10 l 94 10 q 133 30 113 10 q 174 80 153 49 q 213 147 194 111 q 249 216 232 183 q 276 271 265 249 l 276 271 q 294 267 282 270 q 315 259 305 264 q 324 245 324 254 l 324 245 q 314 219 324 241 q 291 164 304 196 q 267 98 277 131 q 257 40 257 65 l 257 40 q 265 11 257 22 q 290 0 272 0 l 290 0 q 341 19 311 0 q 402 75 371 38 q 457 162 433 111 l 457 162 l 470 153 q 415 58 449 99 q 343 -7 381 16 q 269 -30 305 -30 l 269 -30 q 228 -20 243 -30 q 206 7 212 -10 q 199 44 199 24 l 199 44 q 201 69 199 56 q 206 94 203 81 l 206 94 q 167 33 188 61 q 123 -13 146 4 q 75 -30 100 -30 z"},"v":{"ha":407,"x_min":10,"x_max":439,"o":"m 65 -39 l 65 -39 q 22 -8 34 -39 q 10 71 10 22 l 10 71 q 11 103 10 73 q 16 202 12 132 l 16 202 q 22 239 18 229 q 48 249 26 249 l 48 249 q 70 243 65 249 q 74 217 74 236 l 74 217 q 70 140 74 184 q 65 56 65 95 l 65 56 q 70 14 65 27 q 88 0 75 0 l 88 0 q 128 21 106 0 q 173 75 150 41 q 217 146 196 108 q 253 219 237 184 l 253 219 q 268 310 255 287 q 299 332 280 332 l 299 332 q 327 319 318 332 q 335 294 335 305 l 335 294 q 327 267 335 281 q 309 229 318 253 q 300 160 300 205 l 300 160 q 303 126 300 144 q 316 96 306 108 q 347 84 326 84 l 347 84 q 388 101 368 84 q 426 158 407 117 l 426 158 l 439 148 q 391 81 417 98 q 340 64 364 64 l 340 64 q 285 88 307 64 q 256 161 263 112 l 256 161 q 200 67 232 112 q 132 -9 167 21 q 65 -39 97 -39 z"},"w":{"ha":617,"x_min":0,"x_max":649,"o":"m 282 -39 l 282 -39 q 240 -10 251 -39 q 228 58 228 18 l 228 58 q 230 102 228 78 q 235 148 232 125 l 235 148 q 188 63 213 104 q 134 -4 162 22 q 75 -30 106 -30 l 75 -30 q 21 0 42 -30 q 0 71 0 30 l 0 71 q 10 138 0 100 q 33 213 19 176 q 62 274 47 250 q 88 298 77 298 l 88 298 q 109 293 93 298 q 125 278 125 287 l 125 278 q 98 226 114 261 q 70 151 82 191 q 58 77 58 110 l 58 77 q 60 53 58 69 q 70 23 62 36 q 93 10 77 10 l 93 10 q 142 39 116 10 q 194 112 168 68 q 243 201 220 156 l 243 201 q 257 261 251 242 q 268 286 262 280 q 283 291 274 291 l 283 291 q 304 286 296 291 q 312 269 312 280 l 312 269 q 312 264 312 267 q 310 258 311 261 l 310 258 q 297 198 303 234 q 286 122 290 161 q 282 49 282 83 l 282 49 q 287 13 282 26 q 304 0 292 0 l 304 0 q 339 19 319 0 q 381 68 359 37 q 423 134 402 98 q 459 205 443 170 l 459 205 q 467 285 459 257 q 486 322 474 312 q 509 332 497 332 l 509 332 q 537 319 528 332 q 545 294 545 305 l 545 294 q 542 280 545 287 q 534 263 539 272 l 534 263 q 518 225 526 248 q 510 160 510 201 l 510 160 q 513 126 510 144 q 526 96 516 108 q 557 84 536 84 l 557 84 q 598 101 578 84 q 636 158 617 117 l 636 158 l 649 148 q 601 81 627 98 q 550 64 574 64 l 550 64 q 498 85 519 64 q 466 148 476 106 l 466 148 q 410 59 441 102 q 346 -11 379 16 q 282 -39 313 -39 z"},"x":{"ha":418,"x_min":10,"x_max":448,"o":"m 44 -59 l 44 -59 q 37 -55 40 -59 q 34 -44 34 -51 l 34 -44 q 55 -1 34 -32 q 110 71 76 29 q 182 156 143 113 l 182 156 q 169 238 177 203 q 138 272 161 272 l 138 272 q 95 252 114 272 q 58 199 76 231 q 19 129 40 166 l 19 129 l 10 145 q 37 201 24 172 q 64 255 49 230 q 101 296 79 280 q 154 311 122 311 l 154 311 q 212 284 193 311 q 237 216 230 256 l 237 216 q 322 299 284 265 q 373 332 360 332 l 373 332 q 388 329 378 332 q 398 321 398 326 l 398 321 q 363 302 387 321 q 308 249 339 282 q 243 177 277 216 l 243 177 q 248 117 246 147 q 255 63 250 87 q 269 25 259 39 q 297 10 279 10 l 297 10 q 336 25 315 10 q 376 64 356 40 q 412 113 395 87 q 438 161 428 139 l 438 161 l 448 151 q 406 68 434 108 q 342 1 377 27 q 272 -26 307 -26 l 272 -26 q 226 -6 243 -26 q 201 45 209 13 q 187 111 192 76 l 187 111 q 110 16 145 61 q 56 -52 74 -29 l 56 -52 q 44 -59 50 -59 z"},"y":{"ha":389,"x_min":-20,"x_max":421,"o":"m 43 -280 l 43 -280 q -1 -266 18 -280 q -20 -227 -20 -253 l -20 -227 q -4 -170 -20 -195 q 39 -124 12 -145 q 101 -84 66 -103 q 174 -46 136 -65 l 174 -46 q 203 37 188 -9 q 230 137 217 82 l 230 137 q 162 48 198 85 q 84 10 125 10 l 84 10 q 47 19 65 10 q 16 45 28 27 q 4 91 4 63 l 4 91 q 14 156 4 119 q 37 228 23 193 q 66 286 51 263 q 92 309 81 309 l 92 309 q 107 306 96 309 q 127 298 117 303 q 136 286 136 292 l 136 286 q 116 249 127 273 q 95 196 105 225 q 77 138 84 166 q 70 90 70 110 l 70 90 q 78 61 70 72 q 106 50 86 50 l 106 50 q 149 69 125 50 q 196 116 172 87 q 239 178 219 145 l 239 178 q 245 201 242 189 q 249 224 247 212 l 249 224 q 264 257 252 238 q 300 275 275 275 l 300 275 q 310 275 305 275 q 321 272 315 274 l 321 272 q 312 213 321 256 q 285 111 302 169 q 243 -8 267 53 l 243 -8 q 335 52 290 10 q 408 162 380 93 l 408 162 l 421 152 q 376 69 406 104 q 307 8 345 33 q 232 -35 269 -18 l 232 -35 q 176 -155 206 -99 q 112 -245 145 -211 q 43 -280 78 -280 z m 38 -248 l 38 -248 q 89 -208 53 -248 q 164 -70 124 -169 l 164 -70 q 88 -113 123 -92 q 32 -160 53 -135 q 11 -218 11 -185 l 11 -218 q 17 -237 11 -226 q 38 -248 23 -248 z"},"z":{"ha":317,"x_min":-71,"x_max":346,"o":"m -5 -280 l -5 -280 q -53 -268 -36 -280 q -71 -229 -71 -257 l -71 -229 q -49 -169 -71 -197 q 8 -117 -28 -142 q 88 -66 44 -92 q 174 -12 131 -41 l 174 -12 q 159 54 174 24 q 105 115 144 84 l 105 115 q 165 150 140 125 q 202 206 189 175 q 214 262 214 236 l 214 262 q 205 300 214 285 q 175 315 195 315 l 175 315 q 116 290 142 315 q 68 224 90 265 q 23 134 46 183 l 23 134 l 11 144 q 57 251 33 204 q 112 326 80 298 q 189 353 144 353 l 189 353 q 248 331 223 353 q 272 271 272 309 l 272 271 q 255 204 272 235 q 211 150 238 173 q 154 111 184 126 l 154 111 q 198 69 180 91 q 224 21 215 46 l 224 21 q 292 85 262 50 q 335 162 321 119 l 335 162 l 346 150 q 301 69 332 105 q 230 2 270 32 l 230 2 q 233 -14 232 -5 q 234 -31 234 -23 l 234 -31 q 214 -120 234 -76 q 160 -201 194 -165 q 84 -258 126 -237 q -5 -280 41 -280 z m -12 -251 l -12 -251 q 35 -236 6 -251 q 94 -194 64 -222 q 146 -127 124 -167 q 173 -35 168 -87 l 173 -35 q 95 -82 133 -60 q 25 -126 56 -105 q -24 -170 -6 -148 q -43 -218 -43 -193 l -43 -218 q -34 -243 -43 -235 q -12 -251 -25 -251 z"},"!":{"ha":260,"x_min":-21,"x_max":334,"o":"m 93 291 l 93 291 q 131 389 110 333 q 176 502 152 444 q 225 610 200 560 q 272 690 249 659 q 314 720 295 720 l 314 720 q 328 714 322 720 q 334 697 334 707 l 334 697 q 320 646 334 683 q 281 555 305 608 q 226 440 256 501 q 162 317 195 379 q 98 199 129 254 q 40 102 66 143 l 40 102 q 39 104 39 103 q 37 105 38 104 l 37 105 q 58 187 47 150 q 78 251 68 224 q 93 291 88 277 z m 11 -10 l 11 -10 q -11 -3 -2 -10 q -21 17 -21 3 l -21 17 q -1 46 -21 34 q 37 58 18 58 l 37 58 q 56 53 49 58 q 63 34 63 48 l 63 34 q 47 5 63 19 q 11 -10 31 -10 z"},"?":{"ha":437,"x_min":108,"x_max":453,"o":"m 233 124 l 233 124 q 208 143 214 134 q 202 171 202 152 l 202 171 q 222 258 202 219 q 270 333 241 297 q 326 405 298 368 q 374 484 354 441 q 393 579 393 526 l 393 579 q 371 664 393 635 q 314 692 348 692 l 314 692 q 244 664 279 692 q 186 587 209 635 q 163 480 163 539 l 163 480 q 165 450 163 463 q 170 423 167 437 l 170 423 q 120 450 132 429 q 108 500 108 470 l 108 500 q 135 607 108 557 q 209 689 161 657 q 318 720 256 720 l 318 720 q 417 686 380 720 q 453 587 453 652 l 453 587 q 438 509 453 543 q 398 446 422 475 q 346 386 373 416 q 295 320 318 355 q 258 237 271 284 l 258 237 q 246 176 248 203 q 233 124 244 149 z m 192 -10 l 192 -10 q 170 -3 179 -10 q 160 16 160 3 l 160 16 q 180 46 160 34 q 218 58 199 58 l 218 58 q 237 53 230 58 q 244 36 244 47 l 244 36 q 228 5 244 19 q 192 -10 212 -10 z"},",":{"ha":196,"x_min":-10,"x_max":76,"o":"m 7 -88 l 7 -88 q -6 -73 -2 -83 q -10 -51 -10 -63 l -10 -51 q -1 -5 -10 -31 q 22 38 8 20 q 51 56 36 56 l 51 56 q 69 48 61 56 q 76 28 76 39 l 76 28 q 35 -30 48 -1 q 7 -88 21 -59 z"},".":{"ha":214,"x_min":8,"x_max":92,"o":"m 40 -10 l 40 -10 q 18 -3 27 -10 q 8 17 8 3 l 8 17 q 17 38 8 28 q 40 53 26 47 q 66 58 53 58 l 66 58 q 85 53 78 58 q 92 34 92 48 l 92 34 q 85 14 92 24 q 65 -3 77 4 q 40 -10 53 -10 z"},":":{"ha":216,"x_min":10,"x_max":154,"o":"m 102 240 l 102 240 q 80 247 89 240 q 70 267 70 253 l 70 267 q 90 296 70 284 q 128 308 109 308 l 128 308 q 147 303 140 308 q 154 284 154 298 l 154 284 q 138 255 154 269 q 102 240 122 240 z m 42 -10 l 42 -10 q 20 -3 29 -10 q 10 17 10 3 l 10 17 q 30 46 10 34 q 68 58 49 58 l 68 58 q 87 53 80 58 q 94 34 94 48 l 94 34 q 78 5 94 19 q 42 -10 62 -10 z"},";":{"ha":213,"x_min":1,"x_max":154,"o":"m 18 -88 l 18 -88 q 5 -73 9 -83 q 1 -51 1 -63 l 1 -51 q 10 -5 1 -31 q 33 38 19 20 q 62 56 47 56 l 62 56 q 80 48 72 56 q 87 28 87 39 l 87 28 q 46 -30 59 -1 q 18 -88 32 -59 z m 102 240 l 102 240 q 80 247 89 240 q 70 267 70 253 l 70 267 q 90 296 70 284 q 128 308 109 308 l 128 308 q 147 303 140 308 q 154 284 154 298 l 154 284 q 138 255 154 269 q 102 240 122 240 z"},"-":{"ha":484,"x_min":36,"x_max":393,"o":"m 36 144 l 36 144 q 59 169 42 159 q 100 184 75 178 q 157 191 125 189 q 225 193 189 193 l 225 193 q 277 192 252 193 q 325 190 302 191 q 365 187 347 188 q 393 184 382 185 l 393 184 q 320 157 354 159 q 250 155 285 155 l 250 155 q 197 155 223 155 q 149 155 170 155 l 149 155 q 114 154 132 155 q 77 150 96 152 q 36 144 58 148 z"},"'":{"ha":125,"x_min":131,"x_max":217,"o":"m 148 576 l 148 576 q 135 591 139 581 q 131 613 131 601 l 131 613 q 140 659 131 634 q 163 702 149 684 q 192 720 177 720 l 192 720 q 210 712 202 720 q 217 692 217 703 l 217 692 q 174 633 189 663 q 148 576 158 602 z"},"\"":{"ha":245,"x_min":131,"x_max":337,"o":"m 268 576 l 268 576 q 255 591 259 581 q 251 613 251 601 l 251 613 q 260 659 251 634 q 283 702 269 684 q 312 720 297 720 l 312 720 q 330 712 322 720 q 337 692 337 703 l 337 692 q 296 634 309 663 q 268 576 282 605 z m 148 576 l 148 576 q 135 591 139 581 q 131 613 131 601 l 131 613 q 140 659 131 634 q 163 702 149 684 q 192 720 177 720 l 192 720 q 210 712 202 720 q 217 692 217 703 l 217 692 q 176 634 189 663 q 148 576 162 605 z"},"(":{"ha":258,"x_min":57,"x_max":364,"o":"m 142 -87 l 142 -87 q 99 -31 118 -72 q 68 67 79 9 q 57 189 57 124 l 57 189 q 80 367 57 285 q 140 514 103 448 q 218 625 176 579 q 299 696 260 671 q 364 720 337 720 l 364 720 q 251 609 298 673 q 173 469 203 544 q 129 316 143 394 q 115 162 115 237 l 115 162 q 128 29 115 87 q 162 -66 140 -30 l 162 -66 q 153 -79 158 -74 q 142 -87 148 -84 z"},")":{"ha":268,"x_min":-61,"x_max":247,"o":"m -39 -87 l -39 -87 q -51 -78 -46 -85 q -61 -63 -57 -71 l -61 -63 q 67 64 9 -14 q 161 246 125 142 q 196 475 196 349 l 196 475 q 183 599 196 537 q 125 720 169 660 l 125 720 q 181 678 152 713 q 228 581 209 642 q 247 435 247 520 l 247 435 q 225 266 247 345 q 167 122 202 186 q 92 10 131 57 q 17 -62 52 -37 q -39 -87 -18 -87 z"},"[":{"ha":393,"x_min":29,"x_max":443,"o":"m 196 -87 l 196 -87 q 132 -83 165 -87 q 71 -75 98 -80 q 29 -67 44 -70 l 29 -67 q 34 -57 31 -63 q 40 -34 36 -51 q 51 19 44 -17 q 70 115 58 54 q 99 269 81 175 q 141 498 116 363 l 141 498 q 180 627 157 583 q 226 687 202 671 q 271 703 250 703 l 271 703 q 303 702 284 703 q 343 700 322 700 l 343 700 q 396 704 369 700 q 443 720 422 708 l 443 720 q 426 667 441 684 q 388 645 411 650 q 338 640 365 640 l 338 640 q 285 647 312 640 q 231 657 258 653 l 231 657 q 203 556 217 615 q 175 429 188 497 q 149 292 161 361 q 125 160 136 223 q 104 47 114 96 q 86 -32 94 -3 l 86 -32 q 176 -31 140 -32 q 236 -28 211 -30 q 282 -22 261 -26 q 326 -11 302 -18 l 326 -11 q 292 -68 322 -49 q 196 -87 261 -87 z"},"]":{"ha":410,"x_min":-14,"x_max":401,"o":"m -14 -88 l -14 -88 q 3 -46 -12 -61 q 41 -24 18 -31 q 91 -18 64 -18 l 91 -18 q 151 -21 117 -18 q 215 -26 184 -24 l 215 -26 q 249 95 232 22 q 283 250 266 167 q 315 415 300 333 q 344 564 330 496 q 367 674 357 632 l 367 674 l 304 674 q 205 671 255 674 q 105 653 155 667 l 105 653 q 140 708 105 696 q 234 720 174 720 l 234 720 q 314 715 271 720 q 401 699 357 709 l 401 699 q 393 648 399 685 q 379 558 387 610 q 361 446 370 505 q 341 327 351 386 q 322 218 331 268 q 306 132 313 167 l 306 132 q 294 75 302 109 q 271 8 285 41 q 235 -48 257 -26 q 178 -71 212 -71 l 178 -71 q 75 -73 126 -71 q -14 -88 23 -76 z"},"{":{"ha":260,"x_min":37,"x_max":310,"o":"m 102 -87 l 102 -87 q 51 -66 65 -87 q 37 -21 37 -46 l 37 -21 q 48 37 37 5 q 74 102 59 68 q 100 170 89 136 q 111 233 111 203 l 111 233 q 105 288 111 263 q 75 331 98 313 l 75 331 q 127 363 110 335 q 151 432 144 390 q 161 518 158 473 l 161 518 q 168 592 164 556 q 181 657 172 627 q 208 703 190 686 q 255 720 225 720 l 255 720 q 280 716 268 720 q 300 700 291 711 q 310 667 308 688 l 310 667 q 294 677 302 672 q 277 681 285 681 l 277 681 q 243 654 255 681 q 225 584 231 626 q 212 495 218 541 l 212 495 q 200 415 207 453 q 179 353 192 377 q 141 325 165 328 l 141 325 q 161 295 155 311 q 167 256 167 279 l 167 256 q 156 171 167 210 q 129 97 144 131 q 103 31 114 62 q 91 -30 91 0 l 91 -30 q 98 -52 91 -43 q 124 -62 105 -62 l 124 -62 q 149 -54 139 -62 l 149 -54 q 134 -80 148 -73 q 102 -87 119 -87 z"},"}":{"ha":256,"x_min":-21,"x_max":262,"o":"m 36 -87 l 36 -87 q 11 -82 23 -87 q -10 -66 -2 -78 q -21 -34 -19 -54 l -21 -34 q 13 -46 -3 -46 l 13 -46 q 46 -20 34 -46 q 66 46 58 6 q 78 129 73 86 l 78 129 q 91 218 83 173 q 114 298 99 263 q 156 347 129 333 l 156 347 q 137 382 142 363 q 131 419 131 400 l 131 419 q 142 487 131 451 q 167 557 152 522 q 192 622 181 592 q 202 672 202 651 l 202 672 q 200 683 202 678 q 190 687 198 687 l 190 687 q 177 684 186 687 q 154 670 167 680 l 154 670 q 176 706 156 691 q 222 720 196 720 l 222 720 q 252 710 242 720 q 262 686 262 699 l 262 686 q 251 641 262 669 q 225 577 240 612 q 199 505 210 542 q 188 434 188 468 l 188 434 q 194 382 188 408 q 223 339 200 355 l 223 339 q 169 299 187 330 q 143 224 150 268 q 131 131 135 179 l 131 131 q 124 52 128 91 q 111 -18 119 13 q 84 -68 102 -50 q 36 -87 66 -87 z"},"&":{"ha":616,"x_min":-3,"x_max":636,"o":"m 192 -87 l 192 -87 q 88 -62 132 -87 q 21 5 44 -37 q -3 95 -3 46 l -3 95 q 17 185 -3 141 q 73 266 37 229 q 155 326 108 302 q 256 354 202 349 l 256 354 q 199 428 217 386 q 180 512 180 470 l 180 512 q 207 613 180 565 q 281 690 234 660 q 387 719 327 719 l 387 719 q 469 692 441 719 q 496 613 496 665 l 496 613 q 484 541 496 576 q 455 483 472 505 q 420 460 437 460 l 420 460 q 399 470 409 460 q 383 492 389 479 l 383 492 q 442 557 418 523 q 465 629 465 590 l 465 629 q 449 680 465 660 q 397 699 432 699 l 397 699 q 318 671 350 699 q 270 596 286 642 q 253 495 253 549 l 253 495 q 258 444 253 471 q 275 391 262 417 q 311 344 287 365 l 311 344 q 195 293 244 333 q 118 199 145 253 q 90 92 90 145 l 90 92 q 103 26 90 59 q 143 -30 115 -8 q 218 -53 171 -53 l 218 -53 q 321 -26 271 -53 q 411 46 370 1 q 477 148 451 91 q 510 264 503 204 l 510 264 q 472 261 489 263 q 433 256 454 259 q 379 245 412 252 l 379 245 q 411 301 381 287 q 483 315 441 315 l 483 315 q 540 311 513 315 q 592 303 567 307 q 636 298 616 299 l 636 298 q 615 271 625 275 q 594 266 604 266 l 594 266 q 563 266 577 266 q 536 265 548 265 l 536 265 q 499 133 529 196 q 421 21 468 70 q 315 -58 373 -29 q 192 -87 256 -87 z"},"*":{"ha":391,"x_min":116,"x_max":433,"o":"m 355 404 l 355 404 q 317 457 342 419 q 266 532 292 494 l 266 532 q 215 446 241 483 q 163 408 189 408 l 163 408 q 191 453 180 433 q 210 493 201 472 q 231 539 219 513 l 231 539 q 154 545 186 539 q 116 572 121 550 l 116 572 q 168 575 141 574 q 233 577 195 576 l 233 577 q 199 643 212 612 q 185 692 185 673 l 185 692 q 190 707 185 701 q 199 718 195 713 l 199 718 q 232 650 217 680 q 267 588 246 620 l 267 588 q 309 674 290 637 q 362 718 328 710 l 362 718 q 334 656 353 693 q 295 577 314 618 l 295 577 q 341 579 315 578 q 392 575 367 580 q 433 551 416 569 l 433 551 l 303 539 q 327 504 315 521 q 347 463 339 486 q 355 404 355 439 z"},"\\":{"ha":560,"x_min":164,"x_max":435,"o":"m 435 -162 l 435 -162 q 363 -112 392 -154 q 308 22 334 -71 l 308 22 q 286 117 299 57 q 259 251 273 177 q 230 402 244 325 q 203 545 216 478 q 180 659 190 612 q 164 720 170 706 l 164 720 q 204 705 188 720 q 225 675 220 689 l 225 675 q 256 574 240 636 q 289 435 272 511 q 321 279 305 359 q 353 124 337 199 q 383 -14 368 48 q 411 -115 397 -76 q 435 -162 424 -155 z"},"#":{"ha":668,"x_min":9,"x_max":662,"o":"m 102 -162 l 102 -162 q 138 -92 119 -141 q 175 25 156 -43 q 212 170 194 93 l 212 170 q 144 167 178 169 q 65 160 109 164 l 65 160 l 9 155 q 40 196 11 181 q 118 217 69 210 q 225 225 166 224 l 225 225 q 232 257 227 236 q 239 289 236 278 l 239 289 q 176 285 208 287 q 103 279 143 283 l 103 279 l 46 274 q 76 314 48 299 q 149 335 103 328 q 251 343 195 342 l 251 343 q 290 535 274 449 q 318 675 306 620 l 318 675 q 328 701 321 689 q 363 720 335 713 l 363 720 q 350 647 360 703 q 324 512 339 591 q 292 344 309 432 l 292 344 q 359 343 327 344 q 420 340 390 342 l 420 340 q 460 533 443 447 q 488 675 476 619 l 488 675 q 498 701 491 689 q 533 720 505 713 l 533 720 q 524 671 530 707 q 507 583 517 635 q 485 468 497 531 q 460 338 473 405 l 460 338 q 568 331 517 335 q 662 327 619 327 l 662 327 q 610 300 635 304 q 561 295 584 295 l 561 295 q 503 295 530 295 q 452 294 476 294 l 452 294 q 444 256 449 279 q 437 218 439 232 l 437 218 q 537 212 490 215 q 624 208 584 208 l 624 208 q 572 181 597 185 q 524 176 547 176 l 524 176 q 474 176 497 176 q 428 175 450 176 l 428 175 q 386 -11 406 64 q 339 -124 365 -86 q 272 -162 313 -162 l 272 -162 q 309 -90 290 -140 q 346 28 327 -41 q 383 172 365 96 l 383 172 l 257 172 q 215 -12 234 62 q 169 -124 195 -87 q 102 -162 143 -162 z m 394 221 l 394 221 l 410 293 q 340 293 371 293 q 281 291 309 292 l 281 291 l 268 225 q 332 224 300 225 q 394 221 364 223 z"},"/":{"ha":330,"x_min":-68,"x_max":396,"o":"m -68 -162 l -68 -162 q -21 -96 -48 -142 q 36 12 5 -51 q 98 149 66 75 q 162 298 130 222 q 222 446 193 374 q 274 577 250 517 q 312 675 297 636 l 312 675 q 330 695 316 685 q 362 713 344 705 q 396 720 380 720 l 396 720 q 376 671 391 708 q 339 581 361 634 q 291 465 317 528 q 238 337 265 402 q 186 211 211 271 q 140 101 160 150 q 107 22 119 52 l 107 22 q 23 -114 70 -67 q -68 -162 -25 -162 z"},"_":{"ha":845,"x_min":-20,"x_max":716,"o":"m -20 -66 l -20 -66 q 30 -14 -16 -32 q 155 10 76 3 q 332 16 233 16 l 332 16 q 457 14 406 16 q 546 8 507 11 q 625 1 585 4 q 716 -2 664 -2 l 716 -2 q 630 -38 675 -30 q 553 -47 585 -47 l 553 -47 q 386 -47 455 -47 q 269 -48 317 -48 q 184 -49 220 -48 l 184 -49 q 133 -51 156 -50 q 86 -54 109 -52 q 38 -59 63 -56 q -20 -66 12 -62 z"},"$":{"ha":531,"x_min":1,"x_max":497,"o":"m 135 -162 l 135 -162 q 159 -120 146 -148 q 184 -56 171 -93 l 184 -56 q 94 -35 135 -53 q 27 15 52 -18 q 1 95 1 47 l 1 95 q 22 169 1 140 q 72 212 42 198 q 129 226 102 226 l 129 226 q 88 162 102 197 q 74 93 74 127 l 74 93 q 105 12 74 42 q 194 -24 136 -18 l 194 -24 q 231 111 212 36 q 266 263 249 185 l 266 263 q 202 305 233 283 q 150 357 170 326 q 129 433 129 388 l 129 433 q 159 535 129 488 q 239 612 189 581 q 346 652 288 643 l 346 652 q 352 678 349 664 q 365 703 355 691 q 396 720 374 714 l 396 720 q 392 696 395 713 q 384 655 388 678 l 384 655 q 474 626 451 655 q 497 551 497 597 l 497 551 q 485 470 497 512 q 449 390 472 428 l 449 390 q 423 407 431 394 q 414 432 414 419 l 414 432 q 424 476 414 449 q 442 532 433 503 q 451 582 451 561 l 451 582 q 435 618 451 605 q 379 631 419 631 l 379 631 q 350 475 364 553 q 320 319 335 397 l 320 319 q 387 279 355 301 q 440 224 419 256 q 461 143 461 192 l 461 143 q 429 41 461 83 q 346 -26 397 -2 q 235 -56 294 -51 l 235 -56 q 192 -135 216 -108 q 135 -162 167 -162 z m 245 -24 l 245 -24 q 353 21 313 -17 q 392 113 392 58 l 392 113 q 367 190 392 160 q 304 241 341 219 l 304 241 q 270 72 284 139 q 245 -24 255 5 z m 283 339 l 283 339 q 315 497 300 421 q 341 627 330 572 l 341 627 q 263 591 296 618 q 211 529 229 564 q 192 458 192 493 l 192 458 q 219 387 192 414 q 283 339 246 360 z"},"+":{"ha":408,"x_min":3,"x_max":360,"o":"m 151 -11 l 151 -11 q 159 46 156 21 q 162 97 161 71 q 162 155 162 122 l 162 155 q 107 155 131 155 q 58 152 82 154 q 3 144 34 149 l 3 144 q 57 182 13 171 q 162 193 101 192 l 162 193 l 162 243 q 168 293 162 264 q 191 346 173 321 l 191 346 q 196 284 193 326 q 200 193 199 242 l 200 193 q 295 189 251 192 q 360 184 339 186 l 360 184 q 307 161 335 166 q 257 155 278 155 l 257 155 l 200 155 q 195 77 199 112 q 180 19 190 42 q 151 -11 170 -4 z"},"=":{"ha":503,"x_min":52,"x_max":409,"o":"m 52 206 l 52 206 q 87 237 60 226 q 153 251 113 247 q 241 255 193 255 l 241 255 q 310 254 277 255 q 369 250 343 252 q 409 246 395 248 l 409 246 q 356 223 384 228 q 306 217 327 217 l 306 217 l 205 217 q 152 217 175 217 q 106 214 129 216 q 52 206 83 211 z m 52 106 l 52 106 q 87 137 60 126 q 153 151 113 147 q 241 155 193 155 l 241 155 q 310 154 277 155 q 369 150 343 152 q 409 146 395 148 l 409 146 q 356 123 384 128 q 306 117 327 117 l 306 117 l 205 117 q 152 117 175 117 q 106 114 129 116 q 52 106 83 111 z"},">":{"ha":324,"x_min":61,"x_max":256,"o":"m 97 44 l 97 44 q 80 50 87 44 q 68 60 73 55 l 68 60 q 141 91 114 78 q 188 118 168 104 q 230 147 208 131 l 230 147 q 176 177 205 160 q 120 214 146 194 q 78 254 94 233 q 61 294 61 274 l 61 294 q 63 307 61 299 q 66 316 65 314 l 66 316 q 119 256 87 287 q 187 199 151 225 q 256 158 223 173 l 256 158 q 234 124 252 143 q 191 86 216 104 q 141 56 166 68 q 97 44 115 44 z"},"<":{"ha":310,"x_min":21,"x_max":216,"o":"m 180 44 l 180 44 q 137 56 162 44 q 86 86 111 68 q 43 124 61 104 q 21 158 25 143 l 21 158 q 90 199 54 173 q 158 256 126 225 q 211 316 190 287 l 211 316 q 215 307 213 314 q 216 294 216 299 l 216 294 q 200 254 216 274 q 157 214 183 233 q 102 177 131 194 q 47 147 72 160 l 47 147 q 90 118 70 131 q 137 91 109 104 q 209 60 164 78 l 209 60 q 198 50 205 55 q 180 44 190 44 z"},"~":{"ha":435,"x_min":40,"x_max":347,"o":"m 269 129 l 269 129 q 211 139 241 129 q 149 159 180 149 q 86 168 118 168 l 86 168 q 63 167 74 168 q 40 160 51 165 l 40 160 q 81 196 60 186 q 123 206 101 206 l 123 206 q 167 200 144 206 q 213 184 189 193 q 263 169 237 175 q 317 162 289 162 l 317 162 q 333 163 325 162 q 347 165 340 164 l 347 165 q 310 137 329 145 q 269 129 290 129 z"},"%":{"ha":698,"x_min":78,"x_max":650,"o":"m 78 -87 l 78 -87 q 137 -12 101 -64 q 215 111 172 40 q 301 260 257 181 q 386 417 345 339 q 458 562 426 495 q 508 675 490 629 l 508 675 q 526 695 512 685 q 558 713 540 705 q 592 720 576 720 l 592 720 q 567 665 587 706 q 516 564 546 623 q 452 439 486 505 q 382 307 417 372 q 316 187 346 241 q 263 97 285 132 l 263 97 q 166 -36 211 15 q 78 -87 121 -87 z m 180 347 l 180 347 q 118 380 137 347 q 98 455 98 412 l 98 455 q 109 526 98 488 q 139 596 119 563 q 185 649 158 628 q 243 669 211 669 l 243 669 q 304 641 281 669 q 327 565 327 612 l 327 565 q 316 496 327 533 q 286 424 305 458 q 239 369 266 390 q 180 347 212 347 z m 186 385 l 186 385 q 220 404 204 385 q 249 451 236 422 q 268 512 261 479 q 275 573 275 545 l 275 573 q 268 616 275 599 q 243 633 260 633 l 243 633 q 204 614 221 633 q 176 564 187 594 q 159 503 165 534 q 153 447 153 471 l 153 447 q 162 402 153 419 q 186 385 170 385 z m 503 0 l 503 0 q 441 33 460 0 q 421 108 421 65 l 421 108 q 432 179 421 141 q 462 249 442 216 q 508 302 481 281 q 566 322 534 322 l 566 322 q 627 294 604 322 q 650 218 650 265 l 650 218 q 639 149 650 187 q 609 78 628 111 q 562 22 589 44 q 503 0 535 0 z m 509 38 l 509 38 q 543 57 527 38 q 572 104 559 75 q 591 165 584 132 q 598 226 598 198 l 598 226 q 591 269 598 252 q 566 286 583 286 l 566 286 q 527 267 544 286 q 499 217 510 247 q 482 156 488 187 q 476 101 476 124 l 476 101 q 485 56 476 73 q 509 38 493 38 z"},"@":{"ha":583,"x_min":3,"x_max":533,"o":"m 216 -121 l 216 -121 q 94 -91 141 -121 q 25 -13 47 -61 q 3 88 3 35 l 3 88 q 26 200 3 145 q 92 299 49 255 q 193 369 134 343 q 322 395 251 395 l 322 395 q 442 369 395 395 q 511 301 488 342 q 533 214 533 259 l 533 214 q 520 141 533 177 q 482 75 506 105 q 427 27 458 45 q 359 9 395 9 l 359 9 q 311 25 326 9 q 295 68 295 41 l 295 68 q 296 79 295 74 q 297 88 296 83 l 297 88 q 230 19 263 42 q 166 -5 196 -5 l 166 -5 q 124 12 141 -5 q 107 61 107 28 l 107 61 q 127 140 107 97 q 179 220 146 182 q 251 283 212 258 q 329 307 290 307 l 329 307 q 381 291 360 307 q 402 247 402 274 l 402 247 q 397 227 402 234 q 383 216 392 219 q 362 213 374 213 l 362 213 q 365 227 364 219 q 366 240 366 234 l 366 240 q 358 272 366 259 q 328 285 349 285 l 328 285 q 271 261 300 285 q 217 201 241 237 q 177 127 192 165 q 162 60 162 89 l 162 60 q 168 36 162 43 q 184 28 174 28 l 184 28 q 226 47 203 28 q 273 94 249 65 q 317 152 296 122 q 352 202 337 181 l 352 202 q 372 196 360 201 q 384 182 384 191 l 384 182 q 373 154 384 173 q 350 113 361 135 q 338 69 338 90 l 338 69 q 344 48 338 59 q 372 36 350 36 l 372 36 q 434 62 404 36 q 482 127 463 87 q 501 208 501 166 l 501 208 q 483 282 501 246 q 425 342 464 318 q 322 365 386 365 l 322 365 q 206 341 258 365 q 117 275 154 316 q 59 185 79 234 q 39 84 39 135 l 39 84 q 57 -2 39 39 q 116 -69 75 -43 q 222 -96 156 -96 l 222 -96 q 331 -75 275 -96 q 436 -11 386 -55 l 436 -11 l 442 -19 q 347 -91 404 -62 q 216 -121 290 -121 z"},"|":{"ha":259,"x_min":55,"x_max":187,"o":"m 55 -132 l 55 -132 q 77 -43 67 -99 q 96 82 87 12 q 111 228 104 152 q 124 378 118 304 q 136 517 130 452 q 148 629 142 582 q 159 697 153 676 l 159 697 q 177 682 171 692 q 185 660 183 671 q 187 640 187 649 l 187 640 q 185 547 187 605 q 180 418 183 488 q 172 278 176 348 q 163 149 167 208 q 154 52 158 89 l 154 52 q 123 -83 145 -34 q 55 -132 100 -132 z"},"^":{"ha":203,"x_min":0,"x_max":204,"o":"m 187 406 l 187 406 q 155 456 173 435 q 113 498 137 476 l 113 498 q 58 474 82 487 q 10 441 33 461 l 10 441 q 2 451 4 445 q 0 460 0 456 l 0 460 q 14 490 0 475 q 47 519 27 505 q 85 540 66 532 q 114 548 104 548 l 114 548 q 142 537 126 548 q 171 509 157 526 q 195 472 185 491 q 204 437 204 453 l 204 437 q 200 419 204 427 q 187 406 196 411 z"},"`":{"ha":125,"x_min":0,"x_max":126,"o":"m 112 404 l 112 404 q 63 461 90 433 q 0 520 36 489 l 0 520 q 8 545 2 538 q 22 551 14 551 l 22 551 q 55 536 37 551 q 89 500 73 521 q 116 459 105 478 q 126 430 126 439 l 126 430 q 123 417 126 426 q 112 404 120 408 z"}}}
